<?xml version="1.0" encoding="utf-8"?>
<!-- Generator: Adobe Illustrator 21.0.2, SVG Export Plug-In . SVG Version: 6.00 Build 0)  -->
<svg version="1.1" id="Layer_1" xmlns="http://www.w3.org/2000/svg" xmlns:xlink="http://www.w3.org/1999/xlink" x="0px" y="0px"
	 viewBox="0 0 628.6 107" style="enable-background:new 0 0 628.6 107;" xml:space="preserve">
<style type="text/css">
	.st0{fill:#253744;}
	.st1{fill:url(#SVGID_1_);}
	.st2{fill:#FFFFFF;}
	.st3{display:none;fill:url(#SVGID_2_);}
</style>
<g>
	<path class="st0" d="M252.4,3.8c0,22,0,55,0,99c0,1-0.3,1.9-1,2.6c-0.7,0.7-1.5,1-2.6,1c-4.1,0-10.3,0-18.4,0c-0.9,0-1.8-0.3-2.6-1
		c-0.7-0.7-1-1.5-1-2.6c0-11.7,0-29.2,0-52.5c-5.6,8.7-14,21.8-25.1,39.3c-0.1,0.1-0.2,0.2-0.2,0.3h-0.2c-2.1,3.3-5.2,8.3-9.3,14.8
		c-0.1,0-0.2,0.1-0.3,0.2c-0.1,0.1-0.2,0.2-0.2,0.3c-0.1,0.1-0.3,0.3-0.5,0.7c-0.3,0.1-0.6,0.2-0.9,0.3c-0.3,0.1-0.7,0.2-1,0.2
		c-0.5,0-0.9-0.1-1.2-0.2c-0.3-0.1-0.7-0.2-1-0.3c-0.2-0.2-0.5-0.5-0.7-0.9c0-0.1-0.1-0.2-0.2-0.2c0-0.1-0.1-0.2-0.2-0.2
		c-2.1-3.3-5.3-8.4-9.6-15.1c-0.1-0.1-0.2-0.2-0.2-0.3c-5.5-8.6-13.8-21.6-25-38.9c0,11.6,0,29.1,0,52.5c0,1-0.3,1.9-1,2.6
		c-0.8,0.7-1.7,1-2.6,1c-4.1,0-10.3,0-18.4,0c-1,0-1.9-0.3-2.6-1c-0.7-0.7-1-1.5-1-2.6c0-21.9,0-54.9,0-99c0-0.9,0.3-1.7,1-2.4
		c0.7-0.7,1.5-1,2.6-1c4,0,10.2,0,18.4,0c0.6,0,1.1,0.1,1.7,0.3c0.5,0.3,0.9,0.7,1.4,1.2v0.2h0.2c8.4,13.3,21.1,33.2,38,59.7
		c8.5-13.3,21.2-33.2,38-59.7h0.2V2c0.3-0.5,0.8-0.9,1.4-1.2c0.6-0.2,1.1-0.3,1.7-0.3c4.1,0,10.3,0,18.4,0c1,0,1.9,0.3,2.6,1
		C251.7,2.1,252.1,2.9,252.4,3.8z"/>
	<path class="st0" d="M327.7,37.7c0,2.7,0,6.8,0,12.2c0,0.6-0.2,1.2-0.7,1.6c-0.5,0.5-1,0.7-1.7,0.7c-8.6,0-21.4,0-38.4,0
		c0,2.3,0,5.7,0,10.2c7.3,0,18.3,0,33,0c0.6,0,1.2,0.3,1.6,0.8c0.4,0.5,0.6,1,0.6,1.6c0,2.7,0,6.7,0,12c0,0.6-0.2,1.2-0.6,1.7
		c-0.5,0.5-1,0.7-1.6,0.7c-7.3,0-18.3,0-33,0c0,2.2,0,5.6,0,10.2c8.6,0,21.4,0,38.4,0c0.7,0,1.3,0.2,1.7,0.7c0.5,0.5,0.7,1,0.7,1.7
		c0,2.7,0,6.8,0,12.2c0,0.7-0.2,1.3-0.7,1.7c-0.5,0.5-1,0.7-1.7,0.7c-11.7,0-29.4,0-52.9,0c-0.7,0-1.3-0.2-1.7-0.7
		c-0.5-0.5-0.7-1-0.7-1.7c0-1.5,0-3.9,0-6.9c0-1.2,0-2.9,0-5.1c0-3.4,0-8.4,0-15.1c0-2.7,0-6.8,0-12.2c0-3.3,0-8.3,0-14.9
		c0-1.2,0-3,0-5.3c0-1.5,0-3.8,0-6.8c0-0.7,0.2-1.3,0.7-1.7c0.5-0.5,1-0.7,1.7-0.7c11.7,0,29.4,0,52.9,0c0.7,0,1.3,0.2,1.7,0.7
		C327.5,36.4,327.7,37,327.7,37.7z"/>
	<path class="st0" d="M396.9,37.5c0,2.7,0,6.8,0,12.2c0,0.6-0.2,1.2-0.7,1.6c-0.5,0.5-1,0.8-1.6,0.8c-4,0-10,0-17.9,0
		c0,11.5,0,28.8,0,51.9c0,0.7-0.3,1.3-0.8,1.7c-0.5,0.5-1,0.7-1.6,0.7c-2.7,0-6.8,0-12.2,0c-0.7,0-1.3-0.2-1.7-0.7
		c-0.5-0.5-0.7-1-0.7-1.7c0-11.5,0-28.8,0-51.9c-4,0-10,0-17.9,0c-0.7,0-1.3-0.3-1.7-0.8c-0.5-0.5-0.7-1-0.7-1.6c0-2.7,0-6.8,0-12.2
		c0-0.7,0.2-1.3,0.7-1.7c0.5-0.5,1-0.7,1.7-0.7c4.4,0,11,0,19.8,0c7.3,0,18.4,0,33.1,0c0.6,0,1.2,0.2,1.6,0.7
		C396.7,36.3,396.9,36.9,396.9,37.5z"/>
	<path class="st0" d="M461.2,44.7c0,6.9,0,17.4,0,31.4c0,2.6-0.9,4.9-2.8,6.8c-1.9,1.9-4.2,2.8-6.8,2.8c-0.9,0-2.3,0-4.2,0
		c2.9,4.1,7.3,10.2,13.2,18.3c0.5,0.7,0.6,1.3,0.5,1.7c-0.2,0.5-0.5,0.7-1.2,0.7c-3.6,0-9.1,0-16.3,0c-0.6,0-1.4-0.2-2.2-0.7
		c-0.8-0.5-1.4-1-1.9-1.7c-2.9-4-7.3-10.1-13.1-18.3c-1.3,0-3.2,0-5.8,0c0,4.1,0,10.2,0,18.3c0,0.7-0.2,1.3-0.7,1.7
		c-0.5,0.5-1.1,0.7-1.7,0.7c-2.8,0-6.9,0-12.4,0c-0.7,0-1.3-0.2-1.7-0.7s-0.7-1-0.7-1.7c0-5.6,0-13.9,0-25c0-9.2,0-23,0-41.6
		c0-0.6,0.2-1.2,0.7-1.6c0.5-0.5,1-0.7,1.7-0.7c2.7,0,6.8,0,12.4,0c7.4,0,18.5,0,33.2,0c2.6,0,4.9,0.9,6.8,2.8
		C460.2,39.7,461.1,42,461.2,44.7z M420.7,54.5c0,2.4,0,6.1,0,11c0,0.6,0.2,1.2,0.7,1.6c0.5,0.5,1,0.7,1.6,0.7c4.2,0,10.4,0,18.8,0
		c0.6,0,1.2-0.2,1.6-0.7c0.5-0.5,0.7-1,0.7-1.6c0-2.5,0-6.1,0-11c0-0.7-0.2-1.3-0.7-1.7c-0.5-0.5-1-0.7-1.6-0.7
		c-4.2,0-10.4,0-18.8,0c-0.6,0-1.2,0.2-1.6,0.7C420.9,53.2,420.7,53.8,420.7,54.5z"/>
	<path class="st0" d="M484.5,89.8c0.7,0,1.3,0.2,1.7,0.7c0.5,0.5,0.7,1.1,0.7,1.7c0,2.6,0,6.6,0,11.8c0,0.7-0.2,1.3-0.7,1.7
		c-0.5,0.5-1,0.7-1.7,0.7c-2.7,0-6.8,0-12.2,0c-0.7,0-1.3-0.2-1.7-0.7c-0.5-0.5-0.7-1-0.7-1.7c0-2.6,0-6.6,0-11.8
		c0-0.6,0.2-1.2,0.7-1.7c0.5-0.5,1-0.7,1.7-0.7C475,89.8,479.1,89.8,484.5,89.8z"/>
	<path class="st0" d="M559.9,44.5c0,11.7,0,29.2,0,52.6h-0.1c-0.1,2.5-1,4.7-2.9,6.6c-1.9,1.9-4.1,2.8-6.7,2.8c-1.2,0-2.9,0-5.2,0
		c-6.3,0-15.6,0-28.1,0c-1.2,0-2.9,0-5.2,0c-1.6,0-4,0-7.2,0c-0.7,0-1.3-0.2-1.7-0.7c-0.5-0.5-0.7-1-0.7-1.7c0-2.7,0-6.8,0-12.2
		c0-0.1,0-0.2,0-0.2c0-0.1,0-0.2,0-0.2c0-11.6,0-28.9,0-52c0-0.2,0-0.3,0-0.3c0-0.1,0-0.2,0-0.2c0-0.3,0-0.7,0-1.3
		c0-0.6,0.2-1.2,0.7-1.6c0.5-0.5,1-0.7,1.7-0.7c1.6,0,4,0,7.2,0c1.2,0,2.9,0,5.2,0c6.3,0,15.7,0,28.3,0c1.2,0,2.9,0,5.2,0
		c2.5,0,4.7,0.9,6.6,2.7C558.7,39.7,559.7,41.9,559.9,44.5z M518.9,52.1c0,2.3,0,5.8,0,10.3c5.2,0,13.2,0,23.9,0c0-2.3,0-5.7,0-10.3
		C537.4,52.1,529.4,52.1,518.9,52.1z M518.9,89.5c5.2,0,13.2,0,23.9,0c0-2.2,0-5.6,0-10.2c-5.3,0-13.3,0-23.9,0
		C518.9,81.7,518.9,85.1,518.9,89.5z"/>
	<path class="st0" d="M628.6,37.4c0,0.6,0,1.5,0,2.7v0.1v0.1v0.1v0.1c0,0.3,0,0.6-0.1,0.8c-0.1,0.2-0.2,0.5-0.2,0.7
		c-4.4,7.6-11,19.1-19.9,34.5c0,6.1,0,15.2,0,27.4c0,0.7-0.2,1.3-0.7,1.7c-0.5,0.5-1,0.7-1.6,0.7c-2.8,0-6.9,0-12.5,0
		c-0.6,0-1.2-0.2-1.7-0.7c-0.5-0.5-0.7-1-0.7-1.7c0-6.1,0-15.2,0-27.4c-4.4-7.6-11-19.1-19.9-34.5c-0.1-0.2-0.2-0.5-0.2-0.7
		c-0.1-0.3-0.2-0.6-0.2-0.9v-0.1v-0.1v-0.1V40c0-0.5,0-1.4,0-2.5c0-0.6,0.2-1.2,0.7-1.6c0.5-0.5,1-0.8,1.7-0.8c2.7,0,6.8,0,12.2,0
		c0.8,0,1.4,0.3,2,0.9c0.5,0.5,0.8,0.9,0.9,1c2.5,4.5,6.4,11.2,11.5,20c2.5-4.4,6.4-11.1,11.5-20c0.2-0.3,0.6-0.7,1.2-1.2
		c0.5-0.5,1.1-0.8,1.7-0.8c2.8,0,6.9,0,12.3,0c0.6,0,1.2,0.3,1.6,0.8c0.5,0.4,0.7,0.8,0.7,1.4C628.6,37.3,628.6,37.4,628.6,37.4z"/>
</g>
<g>
	<linearGradient id="SVGID_1_" gradientUnits="userSpaceOnUse" x1="1.6526" y1="1.6526" x2="105.2041" y2="105.2041">
		<stop  offset="1.081081e-02" style="stop-color:#4FC5D3"/>
		<stop  offset="0.3123" style="stop-color:#5E9CC8"/>
		<stop  offset="0.5297" style="stop-color:#6482C1"/>
		<stop  offset="1" style="stop-color:#4FC5D3"/>
	</linearGradient>
	<path class="st1" d="M101.2,106.9H5.6c-3.1,0-5.6-2.5-5.6-5.6V5.6C0,2.5,2.5,0,5.6,0h95.6c3.1,0,5.6,2.5,5.6,5.6v95.6
		C106.9,104.3,104.3,106.9,101.2,106.9z"/>
	<path class="st2" d="M45.1,107V64.5c0-1.3,1-2.3,2.3-2.3h12c1.3,0,2.3,1,2.3,2.3V107H45.1z"/>
	<path class="st2" d="M48.3,35h10.3c1.8,0,3.4,1.5,3.4,3.4v10.3c0,1.8-1.5,3.4-3.4,3.4H48.3c-1.8,0-3.4-1.5-3.4-3.4V38.4
		C44.9,36.5,46.4,35,48.3,35z"/>
	<linearGradient id="SVGID_2_" gradientUnits="userSpaceOnUse" x1="43.3348" y1="45.3537" x2="63.1847" y2="45.3537">
		<stop  offset="1.081081e-02" style="stop-color:#4FC5D3"/>
		<stop  offset="0.3123" style="stop-color:#5E9CC8"/>
		<stop  offset="0.5297" style="stop-color:#6482C1"/>
		<stop  offset="1" style="stop-color:#4FC5D3"/>
	</linearGradient>
	<path class="st3" d="M63.2,45.4c0.2,5.5-3.8,9.8-10.2,9.8c-5.6,0-9.6-4.4-9.6-9.8c0-5.6,4.2-10,10-10
		C59.4,35.4,63.2,39.8,63.2,45.4z"/>
</g>
<g>
</g>
<g>
</g>
<g>
</g>
<g>
</g>
<g>
</g>
<g>
</g>
</svg>
