<?xml version="1.0" standalone="no"?>
<!DOCTYPE svg PUBLIC "-//W3C//DTD SVG 1.1//EN" "http://www.w3.org/Graphics/SVG/1.1/DTD/svg11.dtd" >
<svg xmlns="http://www.w3.org/2000/svg">
<metadata>Generated by IcoMoon</metadata>
<defs>
<font id="imetr" horiz-adv-x="1024">
<font-face units-per-em="1024" ascent="960" descent="-64" />
<missing-glyph horiz-adv-x="1024" />
<glyph unicode="&#x20;" horiz-adv-x="512" d="" />
<glyph unicode="&#xe900;" glyph-name="add" horiz-adv-x="882" d="M169.529 756.338h78.507c9.102 0 15.929 6.827 15.929 15.929s-7.964 17.067-17.067 17.067h-78.507c-9.102 0-15.929-6.827-15.929-15.929s7.964-17.067 17.067-17.067zM169.529 640.284h221.867c9.102 1.138 15.929 7.964 14.791 17.067-1.138 7.964-6.827 13.653-14.791 14.791h-221.867c-9.102 1.138-17.067-5.689-17.067-14.791-1.138-9.102 5.689-17.067 14.791-17.067 0-1.138 1.138-1.138 2.276 0zM615.538 539.022c0 9.102-6.827 15.929-15.929 15.929h-430.080c-9.102-1.138-15.929-7.964-14.791-17.067 1.138-7.964 6.827-13.653 14.791-14.791h430.080c7.964 0 15.929 6.827 15.929 15.929zM169.529 405.902h317.44c9.102 1.138 15.929 7.964 14.791 17.067-1.138 7.964-6.827 13.653-14.791 14.791h-317.44c-9.102-1.138-15.929-7.964-14.791-17.067 0-7.964 6.827-14.791 14.791-14.791zM566.613 304.64c0 9.102-6.827 15.929-15.929 15.929h-381.156c-9.102-1.138-15.929-7.964-14.791-17.067 1.138-7.964 6.827-13.653 14.791-14.791h382.293c7.964 0 14.791 6.827 14.791 15.929zM169.529 203.378c-9.102-1.138-15.929-7.964-14.791-17.067 1.138-7.964 6.827-13.653 14.791-14.791h269.653c9.102-1.138 17.067 5.689 17.067 14.791s-5.689 17.067-14.791 17.067c-1.138 0-2.276 0-2.276 0h-269.653zM707.698 284.16c-95.573 0-174.080-78.507-174.080-174.080s78.507-174.080 174.080-174.080c95.573 0 174.080 77.369 174.080 174.080 0 95.573-78.507 174.080-174.080 174.080zM707.698-32.142c-78.507 0-142.222 63.716-142.222 142.222s63.716 142.222 142.222 142.222c78.507 0 142.222-63.716 142.222-142.222 0 0 0 0 0 0 0-78.507-63.716-142.222-142.222-142.222v0zM543.858-32.142h-512v960.284h448.284v-240.071c0-1.138 0-1.138 0-2.276 1.138-7.964 7.964-13.653 15.929-13.653v0h224.142v-335.644c-1.138-9.102 5.689-17.067 14.791-17.067s17.067 5.689 17.067 14.791c0 1.138 0 2.276 0 2.276v351.573c0 1.138 0 1.138 0 2.276v0c0 2.276-1.138 4.551-2.276 6.827 0 1.138-1.138 1.138-1.138 2.276l-241.209 256c-1.138 1.138-2.276 2.276-3.413 2.276 0 0-1.138 1.138-1.138 1.138-1.138 0-2.276 0-2.276 1.138-2.276 0-3.413 0-4.551 0h-480.142c-9.102 0-15.929-6.827-15.929-15.929v-992.142c0-9.102 6.827-15.929 15.929-15.929 0 0 0 0 0 0h527.929c9.102-1.138 17.067 5.689 17.067 14.791s-5.689 17.067-14.791 17.067c0 0-1.138 0-2.276 0zM512 903.111l186.596-199.111h-186.596v199.111zM787.342 126.009h-63.716v63.716c-1.138 9.102-7.964 15.929-17.067 14.791-7.964-1.138-13.653-6.827-14.791-14.791v-63.716h-63.716c-9.102-1.138-15.929-7.964-14.791-17.067 1.138-7.964 6.827-13.653 14.791-14.791h63.716v-63.716c1.138-9.102 7.964-15.929 17.067-14.791 7.964 1.138 13.653 6.827 14.791 14.791v63.716h63.716c9.102 1.138 15.929 7.964 14.791 17.067-1.138 7.964-6.827 13.653-14.791 14.791z" />
<glyph unicode="&#xe901;" glyph-name="analitics" horiz-adv-x="1020" d="M865.48 960h-710.605c-85.637 0-154.875-69.238-154.875-154.875v-712.427c0-83.815 69.238-153.053 154.875-153.053h712.427c85.637 0 154.875 69.238 154.875 154.875v710.605c-1.822 85.637-71.060 154.875-156.698 154.875zM983.915 94.52c0-65.594-52.84-118.434-118.434-118.434h-710.605c-65.594 0-118.434 52.84-118.434 118.434v311.573l114.79 114.79c12.754-10.932 30.975-16.399 49.196-16.399s36.441 5.466 51.018 14.577l184.028-184.028c-10.932-12.754-16.399-30.975-16.399-49.196 0-51.018 40.085-91.103 91.103-91.103s91.103 40.085 91.103 91.103c0 18.221-5.466 36.441-14.577 51.018l251.445 251.445v-120.256c0-9.11 9.11-18.221 18.221-18.221s18.221 9.11 18.221 18.221v182.206h-182.206c-9.11 0-18.221-9.11-18.221-18.221s9.11-18.221 18.221-18.221h120.256l-251.445-251.445c-14.577 9.11-32.797 14.577-51.018 14.577s-36.441-5.466-51.018-14.577l-182.206 184.028c9.11 12.754 14.577 30.975 14.577 49.196 0 51.018-40.085 91.103-91.103 91.103s-91.103-40.085-91.103-91.103c0-18.221 5.466-36.441 14.577-51.018l-87.459-87.459v348.014c0 65.594 52.84 118.434 118.434 118.434h712.427c63.772 0 116.612-52.84 116.612-118.434v-710.605zM200.427 540.925c-29.153 0-54.662 25.509-54.662 54.662s25.509 54.662 54.662 54.662 54.662-25.509 54.662-54.662-25.509-54.662-54.662-54.662zM564.84 285.836c0-30.975-25.509-54.662-54.662-54.662s-54.662 23.687-54.662 54.662 25.509 54.662 54.662 54.662 54.662-23.687 54.662-54.662z" />
<glyph unicode="&#xe902;" glyph-name="buildings" horiz-adv-x="1026" d="M1005.531-25.010h-61.563v923.447c0 12.313-8.208 20.521-20.521 20.521h-143.647v20.521c0 12.313-8.208 20.521-20.521 20.521s-20.521-8.208-20.521-20.521v-20.521h-307.816c-12.313 0-20.521-8.208-20.521-20.521v-352.962l-311.92-77.98c-10.261-2.052-16.417-10.261-16.417-20.521v-471.984h-61.563c-12.313 0-20.521-8.208-20.521-20.521s8.208-20.521 20.521-20.521h985.010c12.313 0 20.521 8.208 20.521 20.521s-8.208 20.521-20.521 20.521zM902.926 877.916v-902.926h-82.084v143.647c0 12.313-8.208 20.521-20.521 20.521h-123.126c-12.313 0-20.521-8.208-20.521-20.521v-143.647h-205.21v902.926h451.463zM779.8-25.010h-82.084v123.126h82.084v-123.126zM123.126 430.557l287.295 71.824v-527.391h-287.295v455.567zM225.731 303.327h82.084c12.313 0 20.521 8.208 20.521 20.521s-8.208 20.521-20.521 20.521h-82.084c-12.313 0-20.521-8.208-20.521-20.521s8.208-20.521 20.521-20.521zM307.816 221.242h-82.084c-12.313 0-20.521-8.208-20.521-20.521s8.208-20.521 20.521-20.521h82.084c12.313 0 20.521 8.208 20.521 20.521s-8.208 20.521-20.521 20.521zM307.816 98.116h-82.084c-12.313 0-20.521-8.208-20.521-20.521s8.208-20.521 20.521-20.521h82.084c12.313 0 20.521 8.208 20.521 20.521s-8.208 20.521-20.521 20.521zM554.068 57.074c12.313 0 20.521 8.208 20.521 20.521v41.042c0 12.313-8.208 20.521-20.521 20.521s-20.521-8.208-20.521-20.521v-41.042c0-12.313 8.208-20.521 20.521-20.521zM554.068 221.242c12.313 0 20.521 8.208 20.521 20.521v41.042c0 12.313-8.208 20.521-20.521 20.521s-20.521-8.208-20.521-20.521v-41.042c0-12.313 8.208-20.521 20.521-20.521zM677.194 221.242c12.313 0 20.521 8.208 20.521 20.521v41.042c0 12.313-8.208 20.521-20.521 20.521s-20.521-8.208-20.521-20.521v-41.042c0-12.313 8.208-20.521 20.521-20.521zM800.321 221.242c12.313 0 20.521 8.208 20.521 20.521v41.042c0 12.313-8.208 20.521-20.521 20.521s-20.521-8.208-20.521-20.521v-41.042c0-12.313 8.208-20.521 20.521-20.521zM554.068 385.411c12.313 0 20.521 8.208 20.521 20.521v41.042c0 12.313-8.208 20.521-20.521 20.521s-20.521-8.208-20.521-20.521v-41.042c0-12.313 8.208-20.521 20.521-20.521zM677.194 385.411c12.313 0 20.521 8.208 20.521 20.521v41.042c0 12.313-8.208 20.521-20.521 20.521s-20.521-8.208-20.521-20.521v-41.042c0-12.313 8.208-20.521 20.521-20.521zM800.321 385.411c12.313 0 20.521 8.208 20.521 20.521v41.042c0 12.313-8.208 20.521-20.521 20.521s-20.521-8.208-20.521-20.521v-41.042c0-12.313 8.208-20.521 20.521-20.521zM554.068 549.579c12.313 0 20.521 8.208 20.521 20.521v41.042c0 12.313-8.208 20.521-20.521 20.521s-20.521-8.208-20.521-20.521v-41.042c0-12.313 8.208-20.521 20.521-20.521zM677.194 549.579c12.313 0 20.521 8.208 20.521 20.521v41.042c0 12.313-8.208 20.521-20.521 20.521s-20.521-8.208-20.521-20.521v-41.042c0-12.313 8.208-20.521 20.521-20.521zM800.321 549.579c12.313 0 20.521 8.208 20.521 20.521v41.042c0 12.313-8.208 20.521-20.521 20.521s-20.521-8.208-20.521-20.521v-41.042c0-12.313 8.208-20.521 20.521-20.521zM554.068 713.747c12.313 0 20.521 8.208 20.521 20.521v41.042c0 12.313-8.208 20.521-20.521 20.521s-20.521-8.208-20.521-20.521v-41.042c0-12.313 8.208-20.521 20.521-20.521zM677.194 713.747c12.313 0 20.521 8.208 20.521 20.521v41.042c0 12.313-8.208 20.521-20.521 20.521s-20.521-8.208-20.521-20.521v-41.042c0-12.313 8.208-20.521 20.521-20.521zM800.321 713.747c12.313 0 20.521 8.208 20.521 20.521v41.042c0 12.313-8.208 20.521-20.521 20.521s-20.521-8.208-20.521-20.521v-41.042c0-12.313 8.208-20.521 20.521-20.521z" />
<glyph unicode="&#xe903;" glyph-name="calculator" horiz-adv-x="948" d="M760.082 958.827h-574.754c-103.221 0-187.675-84.454-187.675-187.675v-645.132c0-103.221 84.454-187.675 187.675-187.675h574.754c103.221 0 187.675 84.454 187.675 187.675v645.132c0 103.221-84.454 187.675-187.675 187.675zM924.298 126.021c0-90.318-73.897-164.215-164.215-164.215h-574.754c-90.318 0-164.215 73.897-164.215 164.215v645.132c0 90.318 73.897 164.215 164.215 164.215h574.754c90.318 0 164.215-73.897 164.215-164.215v-645.132zM789.407 823.936h-633.402c-25.805 0-46.919-21.113-46.919-46.919v-93.837c0-25.805 21.113-46.919 46.919-46.919h633.402c25.805 0 46.919 21.113 46.919 46.919v93.837c0 25.805-21.113 46.919-46.919 46.919zM812.866 683.18c0-12.903-10.557-23.459-23.459-23.459h-633.402c-12.903 0-23.459 10.557-23.459 23.459v93.837c0 12.903 10.557 23.459 23.459 23.459h633.402c12.903 0 23.459-10.557 23.459-23.459v-93.837zM213.48 565.883h-66.859c-19.94 0-36.362-16.422-36.362-36.362v-66.859c0-19.94 16.422-36.362 36.362-36.362h66.859c19.94 0 36.362 16.422 36.362 36.362v66.859c0 19.94-16.422 36.362-36.362 36.362zM226.383 461.489c0-7.038-5.865-12.903-12.903-12.903h-66.859c-7.038 0-12.903 5.865-12.903 12.903v66.859c0 7.038 5.865 12.903 12.903 12.903h66.859c7.038 0 12.903-5.865 12.903-12.903 0 0 0-66.859 0-66.859zM213.48 366.479h-66.859c-19.94 0-36.362-16.422-36.362-36.362v-66.859c0-19.94 16.422-36.362 36.362-36.362h66.859c19.94 0 36.362 16.422 36.362 36.362v66.859c0 19.94-16.422 36.362-36.362 36.362zM226.383 262.085c0-7.038-5.865-12.903-12.903-12.903h-66.859c-7.038 0-12.903 5.865-12.903 12.903v66.859c0 7.038 5.865 12.903 12.903 12.903h66.859c7.038 0 12.903-5.865 12.903-12.903 0 0 0-66.859 0-66.859zM213.48 167.074h-66.859c-19.94 0-36.362-16.422-36.362-36.362v-66.859c0-19.94 16.422-36.362 36.362-36.362h66.859c19.94 0 36.362 16.422 36.362 36.362v66.859c0 19.94-16.422 36.362-36.362 36.362zM226.383 62.68c0-7.038-5.865-12.903-12.903-12.903h-66.859c-7.038 0-12.903 5.865-12.903 12.903v66.859c0 7.038 5.865 12.903 12.903 12.903h66.859c7.038 0 12.903-5.865 12.903-12.903 0 0 0-66.859 0-66.859zM506.722 565.883h-66.859c-19.94 0-36.362-16.422-36.362-36.362v-66.859c0-19.94 16.422-36.362 36.362-36.362h66.859c19.94 0 36.362 16.422 36.362 36.362v66.859c0 19.94-16.422 36.362-36.362 36.362zM519.624 461.489c0-7.038-5.865-12.903-12.903-12.903h-66.859c-7.038 0-12.903 5.865-12.903 12.903v66.859c0 7.038 5.865 12.903 12.903 12.903h66.859c7.038 0 12.903-5.865 12.903-12.903v-66.859zM506.722 366.479h-66.859c-19.94 0-36.362-16.422-36.362-36.362v-66.859c0-19.94 16.422-36.362 36.362-36.362h66.859c19.94 0 36.362 16.422 36.362 36.362v66.859c0 19.94-16.422 36.362-36.362 36.362zM519.624 262.085c0-7.038-5.865-12.903-12.903-12.903h-66.859c-7.038 0-12.903 5.865-12.903 12.903v66.859c0 7.038 5.865 12.903 12.903 12.903h66.859c7.038 0 12.903-5.865 12.903-12.903v-66.859zM506.722 167.074h-66.859c-19.94 0-36.362-16.422-36.362-36.362v-66.859c0-19.94 16.422-36.362 36.362-36.362h66.859c19.94 0 36.362 16.422 36.362 36.362v66.859c0 19.94-16.422 36.362-36.362 36.362zM519.624 62.68c0-7.038-5.865-12.903-12.903-12.903h-66.859c-7.038 0-12.903 5.865-12.903 12.903v66.859c0 7.038 5.865 12.903 12.903 12.903h66.859c7.038 0 12.903-5.865 12.903-12.903v-66.859zM799.963 565.883h-66.859c-19.94 0-36.362-16.422-36.362-36.362v-66.859c0-19.94 16.422-36.362 36.362-36.362h66.859c19.94 0 36.362 16.422 36.362 36.362v66.859c0 19.94-16.422 36.362-36.362 36.362zM812.866 461.489c0-7.038-5.865-12.903-12.903-12.903h-66.859c-7.038 0-12.903 5.865-12.903 12.903v66.859c0 7.038 5.865 12.903 12.903 12.903h66.859c7.038 0 12.903-5.865 12.903-12.903v-66.859zM799.963 366.479h-66.859c-19.94 0-36.362-16.422-36.362-36.362v-66.859c0-19.94 16.422-36.362 36.362-36.362h66.859c19.94 0 36.362 16.422 36.362 36.362v66.859c0 19.94-16.422 36.362-36.362 36.362zM812.866 262.085c0-7.038-5.865-12.903-12.903-12.903h-66.859c-7.038 0-12.903 5.865-12.903 12.903v66.859c0 7.038 5.865 12.903 12.903 12.903h66.859c7.038 0 12.903-5.865 12.903-12.903v-66.859zM799.963 167.074h-66.859c-19.94 0-36.362-16.422-36.362-36.362v-66.859c0-19.94 16.422-36.362 36.362-36.362h66.859c19.94 0 36.362 16.422 36.362 36.362v66.859c0 19.94-16.422 36.362-36.362 36.362zM812.866 62.68c0-7.038-5.865-12.903-12.903-12.903h-66.859c-7.038 0-12.903 5.865-12.903 12.903v66.859c0 7.038 5.865 12.903 12.903 12.903h66.859c7.038 0 12.903-5.865 12.903-12.903v-66.859z" />
<glyph unicode="&#xe904;" glyph-name="calculator2" horiz-adv-x="1022" d="M211.944 959.55c-117.879 0-214.326-96.447-214.326-214.326v-595.349c0-117.879 96.447-214.326 214.326-214.326h595.349c117.879 0 214.326 96.447 214.326 214.326v595.349c0 117.879-96.447 214.326-214.326 214.326h-595.349zM211.944 911.922h273.86v-440.558h-440.558v273.86c0 92.874 73.823 166.698 166.698 166.698zM533.433 911.922h273.86c92.874 0 166.698-73.823 166.698-166.698v-273.86h-440.558v440.558zM259.572 828.573c-13.098 0-23.814-10.716-23.814-23.814v-83.349h-83.349c-13.098 0-23.814-10.716-23.814-23.814s10.716-23.814 23.814-23.814h83.349v-83.349c0-13.098 10.716-23.814 23.814-23.814s23.814 10.716 23.814 23.814v83.349h83.349c13.098 0 23.814 10.716 23.814 23.814s-10.716 23.814-23.814 23.814h-83.349v83.349c0 13.098-10.716 23.814-23.814 23.814zM652.502 721.41c-13.098 0-23.814-10.716-23.814-23.814s10.716-23.814 23.814-23.814h214.326c13.098 0 23.814 10.716 23.814 23.814s-10.716 23.814-23.814 23.814h-214.326zM45.247 423.736h440.558v-440.558h-273.86c-92.874 0-166.698 73.823-166.698 166.698v273.86zM533.433 423.736h440.558v-273.86c0-92.874-73.823-166.698-166.698-166.698h-273.86v440.558zM166.698 314.192c-5.953 0-11.907-2.381-16.67-7.144-9.526-9.526-9.526-23.814 0-33.34l76.205-76.205-76.205-76.205c-9.526-9.526-9.526-23.814 0-33.34s23.814-9.526 33.34 0l76.205 76.205 76.205-76.205c9.526-9.526 23.814-9.526 33.34 0s9.526 23.814 0 33.34l-76.205 76.205 76.205 76.205c9.526 9.526 9.526 23.814 0 33.34s-23.814 9.526-33.34 0l-76.205-76.205-76.205 76.205c-4.763 4.763-10.716 7.144-16.67 7.144v0zM652.502 280.852c-13.098 0-23.814-10.716-23.814-23.814s10.716-23.814 23.814-23.814h214.326c13.098 0 23.814 10.716 23.814 23.814s-10.716 23.814-23.814 23.814h-214.326zM652.502 161.782c-13.098 0-23.814-10.716-23.814-23.814s10.716-23.814 23.814-23.814h214.326c13.098 0 23.814 10.716 23.814 23.814s-10.716 23.814-23.814 23.814h-214.326z" />
<glyph unicode="&#xe905;" glyph-name="call" horiz-adv-x="1026" d="M438.683 285.016c26.883-28.105 58.654-45.212 89.203-48.878 30.549-2.444 63.542 7.332 100.2 47.656 10.998 12.22 23.217 26.883 43.99 34.215s45.212 2.444 72.095-12.22c50.1-37.881 102.644-76.983 152.745-116.086 23.217-23.217 29.327-54.988 21.995-79.427s-24.439-42.768-39.103-58.654c-84.315-87.981-184.516-130.749-282.272-116.086-95.313 15.885-186.959 83.093-288.382 184.516-43.99 43.99-78.205 78.205-120.974 120.974-101.422 101.422-167.408 193.069-184.516 288.382-19.551 117.308 42.768 212.621 116.086 282.272 15.885 14.663 34.215 31.771 58.654 39.103s56.21 1.222 79.427-21.995c39.103-50.1 78.205-101.422 116.086-152.745 14.663-26.883 18.329-51.322 12.22-72.095-7.332-20.773-21.995-32.993-34.215-43.99-40.325-36.659-51.322-69.652-47.656-100.2s20.773-62.32 48.878-89.203zM317.709 336.339c-32.993 31.771-58.654 72.095-62.32 118.53-4.888 46.434 14.663 97.757 63.542 141.747 12.22 10.998 18.329 18.329 20.773 23.217 1.222 4.888 2.444 13.442-7.332 31.771l-108.754 141.747c-13.442 13.442-19.551 13.442-30.549 9.776s-25.661-14.663-39.103-28.105c-87.981-87.981-114.864-161.298-101.422-239.504s72.095-163.742 171.074-261.499c40.325-40.325 85.537-85.537 120.974-120.974 98.979-98.979 184.516-157.632 261.499-171.074 78.205-13.442 151.523 13.442 239.504 101.422 13.442 13.442 24.439 28.105 28.105 39.103s3.666 15.885-9.776 30.549l-141.747 108.754c-19.551 9.776-26.883 9.776-31.771 7.332-4.888-1.222-12.22-8.554-23.217-20.773-43.99-48.878-94.091-68.43-141.747-63.542-46.434 4.888-86.759 30.549-118.53 62.32zM855.37 544.071c13.442 0 24.439 10.998 24.439 24.439s-10.998 24.439-24.439 24.439h-161.298l325.041 325.041c9.776 9.776 9.776 24.439 0 34.215s-24.439 9.776-34.215 0l-325.041-323.819v161.298c0 13.442-10.998 24.439-24.439 24.439s-24.439-10.998-24.439-24.439v-219.952c0-13.442 10.998-24.439 24.439-24.439l219.952-1.222z" />
<glyph unicode="&#xe906;" glyph-name="chat" horiz-adv-x="1155" d="M1046.905 959.49c59.284 0 107.789-48.505 107.789-107.789v-538.947c0-59.284-48.505-107.789-107.789-107.789h-121.263l24.253-239.832c1.347-10.779-5.389-21.558-14.821-26.947s-22.905-2.695-30.989 5.389l-262.737 261.389h-94.316v-41.768c0-44.463-36.379-79.495-80.842-79.495h-202.105l-142.821-140.126c-8.084-8.084-21.558-9.432-30.989-4.042s-16.168 17.516-13.474 28.295l20.211 115.874h-21.558c-44.463 0-80.842 36.379-80.842 79.495v257.347c0 44.463 36.379 79.495 80.842 79.495h80.842v350.316c0 59.284 48.505 107.789 107.789 107.789l782.821 1.347zM1046.905 905.596h-781.474c-30.989 0-53.895-22.905-53.895-53.895v-538.947c0-30.989 22.905-53.895 53.895-53.895h388.042c6.737 0 13.474-2.695 18.863-8.084l216.926-215.579-20.211 194.021c-1.347 14.821 12.126 29.642 26.947 29.642h150.905c30.989 0 53.895 22.905 53.895 53.895v538.947c0 30.989-24.253 53.895-53.895 53.895zM925.642 676.543c51.2 0 94.316-43.116 94.316-94.316s-43.116-94.316-94.316-94.316-94.316 43.116-94.316 94.316c0 52.547 41.768 94.316 94.316 94.316zM654.821 676.543c51.2 0 94.316-43.116 94.316-94.316s-43.116-94.316-94.316-94.316-94.316 43.116-94.316 94.316c0 52.547 43.116 94.316 94.316 94.316zM386.695 676.543c51.2 0 94.316-43.116 94.316-94.316s-43.116-94.316-94.316-94.316-94.316 43.116-94.316 94.316c0 52.547 41.768 94.316 94.316 94.316zM925.642 622.648c-22.905 0-40.421-17.516-40.421-40.421s17.516-40.421 40.421-40.421 40.421 17.516 40.421 40.421c0 22.905-18.863 40.421-40.421 40.421zM654.821 622.648c-22.905 0-40.421-17.516-40.421-40.421s17.516-40.421 40.421-40.421 40.421 17.516 40.421 40.421c0 22.905-17.516 40.421-40.421 40.421zM386.695 622.648c-22.905 0-40.421-17.516-40.421-40.421s17.516-40.421 40.421-40.421 40.421 17.516 40.421 40.421c0 22.905-18.863 40.421-40.421 40.421zM157.642 447.49h-80.842c-14.821 0-26.947-10.779-26.947-25.6v-257.347c0-14.821 10.779-25.6 26.947-25.6h53.895c16.168 0 29.642-16.168 26.947-30.989l-10.779-64.674 90.274 88.926c5.389 5.389 12.126 8.084 18.863 8.084h212.884c14.821 0 26.947 10.779 26.947 25.6v41.768h-229.053c-59.284 0-107.789 48.505-107.789 107.789v132.042z" />
<glyph unicode="&#xe907;" glyph-name="check" horiz-adv-x="1389" d="M1303.123 944.511c-513.652-513.652-578.065-589.626-877.006-890.219l-343.535 313.806c-18.168 19.819-52.852 18.168-71.019-1.652s-16.516-54.503 4.955-71.019l378.219-346.839c18.168-16.516 51.2-16.516 69.368 1.652 338.581 338.581 373.265 388.129 910.039 924.903 14.865 14.865 18.168 37.987 9.91 57.806-23.123 34.684-54.503 33.032-80.929 11.561v0z" />
<glyph unicode="&#xe908;" glyph-name="check2" horiz-adv-x="1098" d="M1068.901 959.528c-6.236-1.247-11.225-3.742-14.967-7.484-134.704-140.94-450.261-478.948-594.943-631.113l-193.325 170.875c-9.978 8.731-26.192 8.731-34.923-2.495s-8.731-26.192 2.495-34.923v0l212.034-187.089c9.978-8.731 24.945-8.731 34.923 1.247 138.446 145.929 472.711 503.893 611.157 648.575 9.978 9.978 9.978 26.192 0 34.923-6.236 6.236-14.967 8.731-22.451 7.484v0zM503.893 934.583c-61.116 1.247-123.479-9.978-182.1-32.429-256.935-97.286-387.898-385.403-290.611-643.586 97.286-256.935 385.403-387.898 643.586-290.611s386.65 385.403 289.364 643.586c-3.742 13.72-17.462 21.203-31.181 17.462s-21.203-17.462-17.462-31.181c0-1.247 1.247-2.495 1.247-3.742 87.308-231.99-28.687-490.173-260.677-578.728-231.99-87.308-491.42 28.687-578.728 260.677s28.687 490.173 260.677 578.728c142.188 53.632 300.59 32.429 422.821-57.374 11.225-7.484 27.44-3.742 34.923 7.484 6.236 9.978 4.989 24.945-4.989 32.429-83.566 63.61-184.594 96.039-286.87 97.286z" />
<glyph unicode="&#xe909;" glyph-name="check3" horiz-adv-x="1189" d="M336.929-30.968c39.639-39.639 112.31-39.639 145.342 6.606l667.252 825.806c33.032 39.639 26.426 105.703-13.213 138.735s-105.703 26.426-138.735-13.213l-601.187-746.529-224.619 231.226c-39.639 33.032-105.703 33.032-145.342-6.606s-39.639-99.097 0-138.735l310.503-297.29z" />
<glyph unicode="&#xe90a;" glyph-name="clock" d="M512 960c-282.764 0-512-229.236-512-512s229.236-512 512-512 512 229.236 512 512-229.236 512-512 512zM512-17.455c-257.164 0-465.455 208.291-465.455 465.455s208.291 465.455 465.455 465.455 465.455-208.291 465.455-465.455-208.291-465.455-465.455-465.455zM707.491 672.582l-150.109-146.618c-6.982 4.655-13.964 6.982-22.109 9.309v275.782c0 12.8-10.473 23.273-23.273 23.273s-23.273-10.473-23.273-23.273v-275.782c-38.4-10.473-67.491-45.382-67.491-87.273 0-50.036 40.727-90.764 90.764-90.764s90.764 40.727 90.764 90.764c0 16.291-4.655 31.418-11.636 44.218l148.945 146.618c9.309 9.309 9.309 23.273 0 32.582s-23.273 9.309-32.582 1.164zM512 403.782c-24.436 0-44.218 19.782-44.218 44.218s19.782 44.218 44.218 44.218 44.218-19.782 44.218-44.218-19.782-44.218-44.218-44.218z" />
<glyph unicode="&#xe90b;" glyph-name="comments" horiz-adv-x="997" d="M107.789 959.49c-59.284 0-107.789-48.505-107.789-107.789v-538.947c0-59.284 48.505-107.789 107.789-107.789h148.211l-24.253-239.832c-1.347-10.779 5.389-21.558 14.821-26.947s22.905-2.695 30.989 5.389l262.737 261.389h350.316c59.284 0 107.789 48.505 107.789 107.789v538.947c0 59.284-48.505 107.789-107.789 107.789h-782.821zM107.789 905.596h781.474c30.989 0 53.895-22.905 53.895-53.895v-538.947c0-30.989-22.905-53.895-53.895-53.895h-361.095c-6.737 0-13.474-2.695-18.863-8.084l-216.926-215.579 20.211 194.021c1.347 14.821-12.126 29.642-26.947 29.642h-177.853c-30.989 0-53.895 22.905-53.895 53.895v538.947c0 30.989 22.905 53.895 53.895 53.895v0zM202.105 784.333c-14.821 0-26.947-12.126-26.947-26.947s12.126-26.947 26.947-26.947h592.842c14.821 0 26.947 12.126 26.947 26.947s-12.126 26.947-26.947 26.947h-592.842zM202.105 609.175c-14.821 0-26.947-12.126-26.947-26.947s12.126-26.947 26.947-26.947h592.842c14.821 0 26.947 12.126 26.947 26.947s-12.126 26.947-26.947 26.947h-592.842zM202.105 434.017c-14.821 0-26.947-12.126-26.947-26.947s12.126-26.947 26.947-26.947h592.842c14.821 0 26.947 12.126 26.947 26.947s-12.126 26.947-26.947 26.947h-592.842z" />
<glyph unicode="&#xe90c;" glyph-name="complaint" horiz-adv-x="1001" d="M139.52 736h300.8v-48.64h-300.8v48.64zM139.52 560.64h407.040c1.28 1.28 1.28 2.56 2.56 3.84 12.8 17.92 26.88 33.28 46.080 44.8h-455.68v-48.64zM139.52 437.76h375.040c1.28 16.64 2.56 33.28 5.12 48.64h-380.16v-48.64zM139.52 316.16h376.32c-1.28 16.64-1.28 32-1.28 48.64h-375.040v-48.64zM139.52 194.56h414.72c-5.12 7.68-10.24 15.36-15.36 23.040-3.84 7.68-7.68 16.64-10.24 25.6h-389.12v-48.64zM139.52 71.68h499.2c-2.56 3.84-5.12 8.96-6.4 14.080-2.56 11.52-2.56 24.32 2.56 34.56h-495.36v-48.64zM751.36-15.36h-705.28v926.72h480v-199.68c0-14.080 11.52-24.32 24.32-24.32h199.68v-38.4c7.68 0 15.36 0 24.32 0s16.64 0 24.32 0v62.72c0 0 0 0 0 0 0 6.4-2.56 12.8-7.68 17.92l-222.72 222.72c0 0 0 0 0 0-1.28 1.28-2.56 2.56-3.84 2.56 0 0-1.28 0-1.28 0-1.28 0-2.56 1.28-2.56 1.28s-1.28 0-1.28 0-2.56 1.28-2.56 1.28c-1.28 0-2.56 0-5.12 0h-529.92c-12.8 2.56-24.32-8.96-24.32-21.76v-975.36c0-14.080 11.52-24.32 24.32-24.32h753.92c14.080 0 24.32 11.52 24.32 24.32v119.040c-15.36-8.96-32-16.64-48.64-23.040v-71.68zM574.72 876.8l140.8-140.8h-140.8v140.8zM686.080 80.64c-8.96 0-16.64 6.4-19.2 14.080-2.56 8.96 1.28 17.92 10.24 21.76 17.92 8.96 30.72 23.040 37.12 38.4 0 1.28 1.28 2.56 1.28 3.84-166.4 6.4-166.4 122.88-166.4 226.56 0 117.76 0 227.84 225.28 227.84s225.28-110.080 225.28-227.84c0-103.68 0-221.44-166.4-226.56-30.72-46.080-88.32-76.8-147.2-78.080 0 0 0 0 0 0zM775.68 574.72c-186.88 0-186.88-75.52-186.88-189.44 0-108.8 0-186.88 139.52-186.88 8.96 0 16.64-3.84 21.76-11.52 11.52-16.64 2.56-44.8 1.28-44.8-1.28-2.56-1.28-5.12-2.56-6.4 24.32 12.8 46.080 30.72 58.88 53.76 3.84 6.4 10.24 10.24 16.64 10.24 139.52 0 139.52 78.080 139.52 186.88-1.28 112.64-1.28 188.16-188.16 188.16zM794.88 244.48c-5.12-5.12-11.52-7.68-19.2-7.68s-14.080 2.56-19.2 7.68c-5.12 5.12-8.96 11.52-8.96 20.48 0 7.68 2.56 14.080 7.68 19.2s11.52 7.68 19.2 7.68 14.080-2.56 20.48-7.68c5.12-5.12 7.68-11.52 7.68-19.2 1.28-8.96-2.56-15.36-7.68-20.48zM801.28 449.28l-7.68-90.88c-1.28-11.52-2.56-19.2-5.12-25.6s-7.68-8.96-14.080-8.96c-6.4 0-11.52 2.56-14.080 8.96-2.56 5.12-3.84 14.080-5.12 25.6l-6.4 89.6c-1.28 17.92-1.28 29.44-1.28 37.12 0 10.24 2.56 17.92 7.68 24.32s12.8 8.96 21.76 8.96c10.24 0 17.92-3.84 21.76-11.52s5.12-17.92 5.12-32c0-7.68-1.28-16.64-2.56-25.6z" />
<glyph unicode="&#xe90d;" glyph-name="delete" horiz-adv-x="1019" d="M973.261 813.934h-284.444v23.063c0 67.652-55.351 123.003-123.003 123.003h-110.703c-67.652 0-123.003-55.351-123.003-123.003v-23.063h-285.982c-26.138 0-46.126-19.988-46.126-46.126s19.988-46.126 46.126-46.126h90.715l1.538-584.264c0-110.703 89.177-199.88 199.88-199.88h342.871c110.703 0 199.88 89.177 199.88 199.88l1.538 584.264h90.715c26.138 0 46.126 19.988 46.126 46.126s-19.988 46.126-46.126 46.126zM424.36 836.997c0 16.913 13.838 30.751 30.751 30.751h110.703c16.913 0 30.751-13.838 30.751-30.751v-23.063h-172.204v23.063zM788.757 137.417c0-59.964-47.664-107.628-107.628-107.628h-342.871c-59.964 0-107.628 47.664-107.628 107.628l-1.538 584.264h559.664v-584.264zM418.21 580.228c-26.138 0-46.126-19.988-46.126-46.126v-305.97c0-26.138 19.988-46.126 46.126-46.126s46.126 19.988 46.126 46.126v305.97c0 24.601-21.526 46.126-46.126 46.126zM602.715 580.228c-26.138 0-46.126-19.988-46.126-46.126v-305.97c0-26.138 19.988-46.126 46.126-46.126s46.126 19.988 46.126 46.126v305.97c0 24.601-21.526 46.126-46.126 46.126z" />
<glyph unicode="&#xe90e;" glyph-name="delete2" horiz-adv-x="997" d="M673.209-64c98.015 0 176.685 76.091 180.554 174.106l20.635 637.098h96.725c14.186 0 25.793 11.607 25.793 25.793s-11.607 25.793-25.793 25.793h-270.831v58.035c0 56.746-46.428 103.174-103.174 103.174h-196.030c-56.746 0-103.174-46.428-103.174-103.174v-58.035h-272.121c-14.186 0-25.793-11.607-25.793-25.793s11.607-25.793 25.793-25.793h96.725l20.635-637.098c3.869-98.015 82.539-174.106 180.554-174.106h349.501zM349.501 856.826c0 28.373 23.214 51.587 51.587 51.587h196.030c28.373 0 51.587-23.214 51.587-51.587v-58.035h-299.204v58.035zM196.030 112.685l-20.635 635.809h648.705l-21.924-635.809c-2.579-69.642-59.325-125.098-128.967-125.098h-348.212c-69.642 0-126.388 54.166-128.967 125.098zM499.103 152.665c14.186 0 25.793 11.607 25.793 25.793v385.612c0 14.186-11.607 25.793-25.793 25.793s-25.793-11.607-25.793-25.793v-385.612c0-14.186 11.607-25.793 25.793-25.793zM344.343 152.665c14.186 0 25.793 11.607 25.793 25.793v385.612c0 14.186-11.607 25.793-25.793 25.793s-25.793-11.607-25.793-25.793v-385.612c0-14.186 11.607-25.793 25.793-25.793zM653.864 152.665c14.186 0 25.793 11.607 25.793 25.793v385.612c0 14.186-11.607 25.793-25.793 25.793s-25.793-11.607-25.793-25.793v-385.612c0-14.186 11.607-25.793 25.793-25.793z" />
<glyph unicode="&#xe90f;" glyph-name="export" horiz-adv-x="905" d="M21.433 959.55c-11.907-1.191-21.433-11.907-21.433-23.814v-881.116c0-13.098 10.716-23.814 23.814-23.814h416.744c13.098 0 23.814 10.716 23.814 23.814s-10.716 23.814-23.814 23.814c0 0 0 0-1.191 0h-391.74v833.488h381.023v-190.512c0-13.098 10.716-23.814 23.814-23.814h190.512v-366.735c-83.349-25.005-142.884-102.4-142.884-194.084 0-111.926 90.493-202.419 202.419-202.419s202.419 90.493 202.419 202.419c0 111.926-90.493 202.419-202.419 202.419-3.572 0-8.335 0-11.907-1.191v382.214c0 5.953-2.381 13.098-7.144 16.67l-214.326 214.326c-4.763 4.763-10.716 7.144-16.67 7.144h-428.651c-1.191 1.191-1.191 1.191-2.381 1.191zM476.279 878.582l133.358-133.358h-133.358v133.358zM702.512 292.759c85.73 0 154.791-69.060 154.791-154.791s-69.060-154.791-154.791-154.791-154.791 69.060-154.791 154.791c0 86.921 69.060 154.791 154.791 154.791zM712.037 234.415c-13.098-1.191-22.623-11.907-21.433-25.005 0-5.953 3.572-11.907 8.335-16.67l34.53-29.767h-126.214c-1.191 0-1.191 0-2.381 0-13.098-1.191-23.814-11.907-22.623-25.005s11.907-23.814 25.005-22.623h126.214l-34.53-29.767c-9.526-8.335-10.716-23.814-2.381-33.34s23.814-10.716 33.34-2.381l83.349 71.442c9.526 8.335 10.716 23.814 2.381 33.34-1.191 1.191-1.191 1.191-2.381 2.381l-83.349 71.442c-4.763 3.572-10.716 5.953-17.86 5.953z" />
<glyph unicode="&#xe910;" glyph-name="eye" horiz-adv-x="1786" d="M888.832 959.225c-294.912-2.048-587.776-163.84-874.496-479.232-20.48-22.528-18.432-45.056 0-65.536 290.816-321.536 589.824-481.28 888.832-479.232s593.92 167.936 882.688 479.232c22.528 22.528 18.432 43.008 0 65.536-288.768 311.296-581.632 477.184-882.688 479.232-4.096 0-8.192 0-14.336 0v0zM890.88 877.305c4.096 0 8.192 0 12.288 0 264.192-2.048 530.432-143.36 800.768-430.080-272.384-286.72-538.624-428.032-800.768-430.080-264.192-2.048-532.48 135.168-806.912 430.080 270.336 290.816 534.528 428.032 794.624 430.080zM901.12 797.433c-192.512 0-350.208-157.696-350.208-350.208s157.696-350.208 350.208-350.208c192.512 0 350.208 157.696 350.208 350.208 0 92.16-34.816 176.128-94.208 237.568-14.336 16.384-40.96 18.432-57.344 2.048s-18.432-40.96-2.048-57.344c0 0 0 0 0-2.048 45.056-47.104 71.68-112.64 71.68-182.272 0-149.504-118.784-268.288-268.288-268.288s-268.288 120.832-268.288 268.288 118.784 268.288 268.288 268.288c22.528 0 40.96 18.432 40.96 40.96 0 24.576-18.432 43.008-40.96 43.008 0 0 0 0 0 0zM901.12 617.209c-92.16 0-167.936-75.776-167.936-169.984 0-92.16 75.776-169.984 167.936-169.984s169.984 75.776 169.984 169.984-77.824 169.984-169.984 169.984zM901.12 535.289c49.152 0 88.064-38.912 88.064-88.064s-38.912-88.064-88.064-88.064c-49.152 0-86.016 38.912-86.016 88.064-2.048 49.152 36.864 88.064 86.016 88.064z" />
<glyph unicode="&#xe911;" glyph-name="eye2" horiz-adv-x="1845" d="M925.867-64c-262.4 0-524.8 104.533-733.867 311.467l-185.6 185.6c-4.267 4.267-6.4 8.533-6.4 14.933s2.133 10.667 6.4 14.933l185.6 185.6c418.133 416 1049.6 416 1467.733 0l185.6-185.6c4.267-4.267 6.4-8.533 6.4-14.933s-2.133-10.667-6.4-14.933l-185.6-185.6c-209.067-206.933-471.467-311.467-733.867-311.467zM51.2 448l170.667-168.533c401.067-398.933 1006.933-398.933 1408 0l170.667 168.533-170.667 168.533c-401.067 398.933-1006.933 398.933-1408 0l-170.667-168.533zM925.867 113.067c-185.6 0-334.933 151.467-334.933 334.933s149.333 334.933 334.933 334.933 334.933-149.333 334.933-334.933-149.333-334.933-334.933-334.933zM925.867 740.267c-162.133 0-292.267-132.267-292.267-292.267s130.133-292.267 292.267-292.267 292.267 130.133 292.267 292.267-130.133 292.267-292.267 292.267zM925.867 317.867c-34.133 0-68.267 12.8-91.733 38.4-8.533 8.533-8.533 21.333 0 29.867s21.333 8.533 29.867 0c17.067-17.067 38.4-25.6 61.867-25.6 49.067 0 87.467 40.533 87.467 87.467 0 25.6-10.667 49.067-29.867 66.133-8.533 8.533-8.533 21.333-2.133 29.867 8.533 8.533 21.333 8.533 29.867 2.133 27.733-25.6 42.667-59.733 42.667-98.133 2.133-72.533-55.467-130.133-128-130.133z" />
<glyph unicode="&#xe913;" glyph-name="full-screen" horiz-adv-x="1043" d="M83.403 911.348h208.507c13.9 0 24.326 10.425 24.326 24.326s-11.584 24.326-24.326 24.326h-267.584c-3.475 0-5.792-1.158-9.267-2.317 0 0 0 0 0 0-5.792-2.317-10.425-6.95-12.742-12.742 0 0 0 0 0 0-1.158-3.475-2.317-5.792-2.317-9.267v-267.584c0-13.9 10.425-24.326 24.326-24.326s24.326 10.425 24.326 24.326v208.507l293.068-293.068c4.633-4.633 10.425-6.95 17.376-6.95 5.792 0 12.742 2.317 17.376 6.95 9.267 9.267 9.267 24.326 0 34.751l-293.068 293.068zM341.719 312.471l-293.068-294.226v208.507c0 13.9-10.425 24.326-24.326 24.326s-24.326-10.425-24.326-24.326v-267.584c0-3.475 1.158-5.792 1.158-9.267 0 0 0 0 0 0 2.317-5.792 6.95-10.425 12.742-12.742 0 0 0 0 0 0 2.317-1.158 5.792-1.158 9.267-1.158h267.584c13.9 0 24.326 10.425 24.326 24.326s-10.425 24.326-24.326 24.326h-208.507l293.068 293.068c9.267 9.267 9.267 24.326 0 34.751s-24.326 9.267-33.593 0zM1018.208 251.077c-13.9 0-24.326-10.425-24.326-24.326v-208.507l-293.068 294.226c-9.267 9.267-24.326 9.267-34.751 0-9.267-9.267-9.267-24.326 0-34.751l293.068-293.068h-208.507c-13.9 0-24.326-10.425-24.326-24.326s10.425-24.326 24.326-24.326h267.584c3.475 0 5.792 1.158 9.267 1.158 0 0 0 0 0 0 5.792 2.317 10.425 6.95 12.742 12.742 0 0 0 0 0 0 1.158 2.317 1.158 5.792 1.158 9.267v267.584c1.158 13.9-9.267 24.326-23.167 24.326zM683.439 576.579c5.792 0 12.742 2.317 17.376 6.95l293.068 293.068v-208.507c0-13.9 10.425-24.326 24.326-24.326s24.326 10.425 24.326 24.326v267.584c0 3.475-1.158 5.792-2.317 9.267 0 0 0 0 0 0-2.317 5.792-6.95 10.425-12.742 12.742 0 0 0 0 0 0-3.475 1.158-5.792 2.317-9.267 2.317h-267.584c-13.9 0-24.326-10.425-24.326-24.326s10.425-24.326 24.326-24.326h208.507l-293.068-293.068c-9.267-9.267-9.267-24.326 0-34.751 4.633-4.633 11.584-6.95 17.376-6.95z" />
<glyph unicode="&#xe914;" glyph-name="full-screen2" horiz-adv-x="1073" d="M1072.762 301.714c0 26.819-21.943 48.762-48.762 48.762s-48.762-21.943-48.762-48.762v-195.048l-307.2 280.381c-19.505 19.505-48.762 19.505-68.267 0-17.067-19.505-17.067-48.762 0-68.267l314.514-285.257h-207.238c-26.819 0-48.762-21.943-48.762-48.762s21.943-48.762 48.762-48.762h316.952c26.819 0 48.762 21.943 48.762 48.762 0 0 0 2.438 0 2.438s0 2.438 0 2.438v312.076zM0 301.714c0 26.819 21.943 48.762 48.762 48.762s48.762-21.943 48.762-48.762v-195.048l307.2 280.381c19.505 19.505 48.762 19.505 68.267 0 0 0 0 0 0 0 19.505-17.067 19.505-48.762 0-65.829 0 0 0 0 0 0l-314.514-287.695h207.238c26.819 0 48.762-21.943 48.762-48.762s-21.943-48.762-48.762-48.762h-316.952c-26.819 0-48.762 21.943-48.762 48.762 0 0 0 2.438 0 2.438s0 2.438 0 2.438v312.076zM1072.762 594.286c0-26.819-21.943-48.762-48.762-48.762s-48.762 21.943-48.762 48.762v195.048l-307.2-280.381c-19.505-19.505-48.762-19.505-68.267 0-17.067 19.505-17.067 48.762 0 68.267l314.514 285.257h-204.8c-26.819 0-48.762 21.943-48.762 48.762s21.943 48.762 48.762 48.762h314.514c26.819 0 48.762-21.943 48.762-48.762 0 0 0-2.438 0-2.438s0-2.438 0-2.438v-312.076zM0 594.286c0-26.819 21.943-48.762 48.762-48.762s48.762 21.943 48.762 48.762v195.048l307.2-280.381c19.505-19.505 48.762-19.505 68.267 0 0 0 0 0 0 0 19.505 17.067 19.505 48.762 0 65.829 0 0 0 0 0 0l-312.076 287.695h204.8c26.819 0 48.762 21.943 48.762 48.762s-21.943 48.762-48.762 48.762h-316.952c-26.819 0-48.762-21.943-48.762-48.762 0 0 0 0 0-2.438s0-2.438 0-2.438v-312.076z" />
<glyph unicode="&#xe915;" glyph-name="gred" d="M409.6 960h-368.64c-22.528 0-40.96-18.432-40.96-40.96v-368.64c0-22.528 18.432-40.96 40.96-40.96h368.64c22.528 0 40.96 18.432 40.96 40.96v368.64c0 22.528-18.432 40.96-40.96 40.96zM409.6 550.4h-368.64v368.64h368.64v-368.64zM983.040 960h-368.64c-22.528 0-40.96-18.432-40.96-40.96v-368.64c0-22.528 18.432-40.96 40.96-40.96h368.64c22.528 0 40.96 18.432 40.96 40.96v368.64c0 22.528-18.432 40.96-40.96 40.96zM983.040 550.4h-368.64v368.64h368.64v-368.64zM409.6 386.56h-368.64c-22.528 0-40.96-18.432-40.96-40.96v-368.64c0-22.528 18.432-40.96 40.96-40.96h368.64c22.528 0 40.96 18.432 40.96 40.96v368.64c0 22.528-18.432 40.96-40.96 40.96zM409.6-23.040h-368.64v368.64h368.64v-368.64zM983.040 386.56h-368.64c-22.528 0-40.96-18.432-40.96-40.96v-368.64c0-22.528 18.432-40.96 40.96-40.96h368.64c22.528 0 40.96 18.432 40.96 40.96v368.64c0 22.528-18.432 40.96-40.96 40.96zM983.040-23.040h-368.64v368.64h368.64v-368.64z" />
<glyph unicode="&#xe916;" glyph-name="grid" d="M409.6 960h-368.64c-22.528 0-40.96-18.432-40.96-40.96v-368.64c0-22.528 18.432-40.96 40.96-40.96h368.64c22.528 0 40.96 18.432 40.96 40.96v368.64c0 22.528-18.432 40.96-40.96 40.96zM409.6 550.4h-368.64v368.64h368.64v-368.64zM983.040 960h-368.64c-22.528 0-40.96-18.432-40.96-40.96v-368.64c0-22.528 18.432-40.96 40.96-40.96h368.64c22.528 0 40.96 18.432 40.96 40.96v368.64c0 22.528-18.432 40.96-40.96 40.96zM983.040 550.4h-368.64v368.64h368.64v-368.64zM409.6 386.56h-368.64c-22.528 0-40.96-18.432-40.96-40.96v-368.64c0-22.528 18.432-40.96 40.96-40.96h368.64c22.528 0 40.96 18.432 40.96 40.96v368.64c0 22.528-18.432 40.96-40.96 40.96zM409.6-23.040h-368.64v368.64h368.64v-368.64zM983.040 386.56h-368.64c-22.528 0-40.96-18.432-40.96-40.96v-368.64c0-22.528 18.432-40.96 40.96-40.96h368.64c22.528 0 40.96 18.432 40.96 40.96v368.64c0 22.528-18.432 40.96-40.96 40.96zM983.040-23.040h-368.64v368.64h368.64v-368.64z" />
<glyph unicode="&#xe917;" glyph-name="heart" horiz-adv-x="1208" d="M319.73 959.455c-82.093 0-164.186-30.245-226.115-93.615-125.3-123.859-125.3-326.931 0-450.79l479.595-479.595c15.842-15.842 44.647-15.842 60.489 0 159.865 159.865 321.17 318.29 481.035 478.155 125.3 123.859 125.3 326.931 0 450.79s-328.371 123.859-452.231 0l-57.609-57.609-59.049 59.049c-61.93 63.37-144.023 93.615-226.115 93.615zM485.356 805.351l89.294-89.294c15.842-15.842 44.647-15.842 60.489 0l89.294 87.854c92.174 92.174 237.637 92.174 329.812 0s92.174-236.197 0-328.371c-149.783-149.783-299.567-299.567-449.35-449.35l-449.35 449.35c-92.174 92.174-92.174 237.637 0 328.371 96.495 90.734 239.077 93.615 329.812 1.44v0z" />
<glyph unicode="&#xe918;" glyph-name="heart2" horiz-adv-x="1141" d="M806.020 896.634c149.545 0 271.208-121.663 271.208-271.208 0-5.069 0-10.139-1.267-17.743-12.673-244.594-296.554-452.436-505.663-595.644-209.109 143.208-492.99 351.050-506.931 595.644 0 6.337-1.267 12.673-1.267 17.743 1.267 149.545 122.931 271.208 272.475 271.208 72.238 0 139.406-27.881 191.366-78.574l44.356-44.356 44.356 44.356c51.96 50.693 119.129 78.574 191.366 78.574zM806.020 960c-92.515 0-174.891-36.752-235.723-96.317-60.832 59.564-143.208 96.317-235.723 96.317-185.030 0-334.574-149.545-334.574-334.574 0-7.604 0-13.941 1.267-21.545 15.208-285.149 339.644-510.733 569.030-667.881 229.386 157.149 553.822 384 569.030 667.881 0 7.604 1.267 13.941 1.267 21.545 0 185.030-149.545 334.574-334.574 334.574v0z" />
<glyph unicode="&#xe919;" glyph-name="information" d="M512 704c-35.328 0-64-28.672-64-64s28.672-64 64-64 64 28.64 64 64-28.64 64-64 64zM512 512c-35.328 0-64-28.64-64-64v-192c0-35.328 28.672-64 64-64s64 28.672 64 64v192c0 35.328-28.64 64-64 64zM512 960c-282.304 0-512-229.696-512-512s229.696-512 512-512 512 229.696 512 512-229.696 512-512 512zM512 32c-229.408 0-416 186.624-416 416s186.592 416 416 416c229.376 0 416-186.624 416-416s-186.624-416-416-416z" />
<glyph unicode="&#xe91a;" glyph-name="letter-x" d="M14.501 874.562c-19.2 19.2-19.2 51.155 0 71.027 19.871 19.2 51.155 19.2 71.027 0l426.204-426.92 426.92 426.92c19.2 19.2 51.155 19.2 70.31 0 19.871-19.871 19.871-51.871 0-71.027l-426.204-426.249 426.204-426.92c19.871-19.2 19.871-51.155 0-71.027-19.2-19.2-51.155-19.2-70.31 0l-426.92 426.92-426.204-426.92c-19.871-19.2-51.155-19.2-71.027 0-19.2 19.871-19.2 51.871 0 71.027l426.204 426.92-426.204 426.249z" />
<glyph unicode="&#xe91b;" glyph-name="like" horiz-adv-x="1145" d="M396.975-20.515v54.707c2.805-1.403 5.611-2.805 8.416-4.208 35.068-14.027 74.345-21.041 116.427-21.041h405.392c63.123 0 115.025 50.499 115.025 113.622 0 15.43-2.805 29.458-8.416 43.485 36.471 19.638 60.318 57.512 60.318 100.997 0 21.041-5.611 39.277-15.43 56.11 25.249 21.041 40.679 51.901 40.679 86.97 0 21.041-5.611 39.277-15.43 56.11 25.249 21.041 40.679 51.901 40.679 86.97 0 63.123-51.901 113.622-115.025 113.622h-266.521c22.444 92.581 18.236 166.926-12.625 221.633-30.86 51.901-75.748 65.929-89.775 68.734-19.638 5.611-49.096 5.611-74.345-12.625-32.263-22.444-47.693-65.929-47.693-127.649 0-67.332-109.414-138.871-172.537-171.134-4.208 1.403-8.416 1.403-12.625 1.403h-311.408c-23.847 0-42.082-18.236-42.082-42.082v-542.86c0-70.137 56.11-126.247 126.247-126.247h228.647c23.847 1.403 42.082 19.638 42.082 43.485zM624.219 816.921c0 49.096 12.625 58.915 12.625 58.915h1.403c1.403-1.403 1.403 0 4.208-1.403 1.403 0 22.444-5.611 37.874-32.263 16.833-29.458 28.055-88.373-11.222-204.8-4.208-12.625-2.805-26.652 5.611-37.874s21.041-16.833 33.666-16.833h325.436c16.833 0 30.86-12.625 30.86-29.458s-14.027-29.458-30.86-29.458h-123.441c-23.847 0-42.082-18.236-42.082-42.082s18.236-42.082 42.082-42.082h96.789c16.833 0 30.86-12.625 30.86-29.458s-14.027-29.458-30.86-29.458h-110.816c-23.847 0-42.082-18.236-42.082-42.082s18.236-42.082 42.082-42.082h84.164c16.833 0 30.86-12.625 30.86-29.458s-14.027-29.458-30.86-29.458h-96.789c-23.847 0-42.082-18.236-42.082-42.082s18.236-42.082 42.082-42.082h44.888c16.833 0 30.86-12.625 30.86-29.458s-14.027-29.458-30.86-29.458h-406.795c-30.86 0-60.318 5.611-85.567 15.43-23.847 9.819-35.068 18.236-40.679 25.249v432.044c63.123 30.86 228.647 123.441 228.647 249.688zM312.811 21.567h-186.564c-23.847 0-42.082 18.236-42.082 42.082v500.778h228.647v-542.86z" />
<glyph unicode="&#xe91c;" glyph-name="like2" horiz-adv-x="1148" d="M377.339-35.195v79.212c8.641-4.321 18.723-10.082 28.805-14.402 34.565-14.402 73.451-21.603 113.778-21.603h416.225c57.609 0 103.696 46.087 103.696 102.256 0 18.723-5.761 36.006-14.402 51.848 38.886 14.402 67.691 51.848 67.691 96.495 0 23.044-7.201 44.647-20.163 61.93 28.805 18.723 47.527 50.408 47.527 86.414 0 23.044-7.201 44.647-20.163 61.93 28.805 18.723 47.527 50.408 47.527 86.414 0 56.169-46.087 102.256-103.696 102.256h-295.246c27.364 100.816 25.924 178.588-7.201 234.757-28.805 50.408-73.451 61.93-83.533 64.81-8.641 2.88-36.006 8.641-63.37-11.522-28.805-20.163-43.207-60.489-43.207-119.539 0-79.212-122.419-158.425-190.11-191.55-4.321 1.44-8.641 2.88-12.962 2.88h-321.17c-15.842 0-28.805-12.962-28.805-28.805v-557.367c0-63.37 51.848-115.218 115.218-115.218h234.757c15.842 0 28.805 12.962 28.805 28.805zM610.655 824.619c0 51.848 12.962 67.691 18.723 72.011s14.402 2.88 14.402 2.88c1.44 0 2.88-1.44 4.321-1.44 0 0 27.364-5.761 46.087-37.446s33.125-97.935-10.082-224.675c-2.88-8.641-1.44-18.723 4.321-25.924s14.402-11.522 23.044-11.522h334.132c25.924 0 46.087-20.163 46.087-44.647s-20.163-44.647-46.087-44.647h-126.74c-15.842 0-28.805-12.962-28.805-28.805s12.962-28.805 28.805-28.805h99.376c25.924 0 46.087-20.163 46.087-44.647s-20.163-44.647-46.087-44.647h-113.778c-15.842 0-28.805-12.962-28.805-28.805s12.962-28.805 28.805-28.805h86.414c25.924 0 46.087-20.163 46.087-44.647s-20.163-44.647-46.087-44.647h-99.376c-15.842 0-28.805-12.962-28.805-28.805s12.962-28.805 28.805-28.805h46.087c25.924 0 46.087-20.163 46.087-44.647s-20.163-44.647-46.087-44.647h-417.665c-33.125 0-64.81 5.761-92.174 17.283-34.565 14.402-46.087 27.364-48.968 33.125 0 0 0 1.44-1.44 1.44v456.551c53.288 25.924 233.316 120.979 233.316 247.719zM319.73-6.391h-205.952c-31.685 0-57.609 25.924-57.609 57.609v528.563h263.561v-586.172z" />
<glyph unicode="&#xe91d;" glyph-name="list" horiz-adv-x="1010" d="M202.747 575.038h-151.419c-28.231 0-51.328-23.098-51.328-51.328v-151.419c0-28.231 23.098-51.328 51.328-51.328h151.419c28.231 0 51.328 23.098 51.328 51.328v151.419c0 28.231-23.098 51.328-51.328 51.328zM51.328 372.291v151.419h151.419v-151.419h-151.419zM984.221 473.664h-640.321c-14.115 0-25.664-11.549-25.664-25.664s11.549-25.664 25.664-25.664h639.038c14.115 0 25.664 11.549 25.664 25.664s-10.266 25.664-24.381 25.664zM202.747 190.075h-151.419c-28.231 0-51.328-23.098-51.328-51.328v-151.419c0-28.231 23.098-51.328 51.328-51.328h151.419c28.231 0 51.328 23.098 51.328 51.328v151.419c0 28.231-23.098 51.328-51.328 51.328zM51.328-12.672v151.419h151.419v-151.419h-151.419zM984.221 88.702h-640.321c-14.115 0-25.664-11.549-25.664-25.664s11.549-25.664 25.664-25.664h639.038c14.115 0 25.664 11.549 25.664 25.664s-10.266 25.664-24.381 25.664zM202.747 960h-151.419c-28.231 0-51.328-23.098-51.328-51.328v-151.419c0-28.231 23.098-51.328 51.328-51.328h151.419c28.231 0 51.328 23.098 51.328 51.328v151.419c0 28.231-23.098 51.328-51.328 51.328zM51.328 757.253v151.419h151.419v-151.419h-151.419zM343.9 807.298h639.038c14.115 0 25.664 11.549 25.664 25.664s-11.549 25.664-25.664 25.664h-639.038c-14.115 0-25.664-11.549-25.664-25.664s11.549-25.664 25.664-25.664z" />
<glyph unicode="&#xe91e;" glyph-name="list_line" horiz-adv-x="1147" d="M27.914 959.444c-16.161-1.469-29.383-14.692-27.914-30.852s14.692-29.383 30.852-27.914h1087.174c16.161 0 29.383 13.222 29.383 29.383s-13.222 29.383-29.383 29.383c0 0 0 0-1.469 0h-1087.174c0 0 0 0-1.469 0zM27.914 636.231c-16.161-1.469-29.383-14.692-27.914-30.852s14.692-29.383 30.852-27.914h1087.174c16.161 0 29.383 13.222 29.383 29.383s-13.222 29.383-29.383 29.383c0 0 0 0-1.469 0h-1087.174c0 0 0 0-1.469 0zM27.914 313.017c-16.161-1.469-29.383-14.692-27.914-30.852s14.692-29.383 30.852-27.914h1087.174c16.161 0 29.383 13.222 29.383 29.383s-13.222 29.383-29.383 29.383c0 0 0 0-1.469 0h-1087.174c0 0 0 0-1.469 0zM27.914-10.197c-16.161-1.469-29.383-14.692-27.914-30.852s14.692-29.383 30.852-27.914c0 0 0 0 0 0h1087.174c16.161 0 29.383 13.222 29.383 29.383s-13.222 29.383-29.383 29.383c0 0 0 0-1.469 0h-1087.174c0 0 0 0-1.469 0z" />
<glyph unicode="&#xe91f;" glyph-name="location-pin" horiz-adv-x="695" d="M347.443 960c-191.635 0-347.443-155.808-347.443-347.443 0-77.071 45.409-194.135 142.685-368.482 66.448-118.939 132.478-219.548 135.395-223.714l47.701-72.488c4.791-7.29 12.915-11.665 21.663-11.665s16.872 4.374 21.663 11.665l47.701 72.488c2.708 4.166 68.322 103.941 135.395 223.714 97.276 174.347 142.685 291.619 142.685 368.482 0.208 191.635-155.808 347.443-347.443 347.443zM506.793 269.279c-66.031-118.314-130.604-216.423-133.312-220.381l-26.037-39.577-26.037 39.577c-2.708 4.166-67.906 103.108-133.312 220.589-90.194 161.64-136.020 277.038-136.020 343.069 0 162.89 132.478 295.369 295.369 295.369s295.369-132.478 295.369-295.369c0.208-66.031-45.618-181.429-136.020-343.277zM347.443 807.317c-106.233 0-192.677-86.444-192.677-192.677s86.444-192.677 192.677-192.677 192.677 86.444 192.677 192.677-86.444 192.677-192.677 192.677zM347.443 474.037c-77.487 0-140.602 63.115-140.602 140.602s63.115 140.602 140.602 140.602c77.487 0 140.602-63.115 140.602-140.602s-62.906-140.602-140.602-140.602z" />
<glyph unicode="&#xe920;" glyph-name="mail" horiz-adv-x="1301" d="M1301.246 100.397v692.419c0 4.18 0 6.966 0 11.146v30.65c0 69.66-55.728 125.388-125.388 125.388h-1050.471c-69.66 0-125.388-55.728-125.388-125.388v-30.65c0-4.18 0-6.966 0-11.146v-692.419c0-2.786 0-6.966 0-9.752v-30.65c0-69.66 55.728-125.388 125.388-125.388h1049.078c69.66 0 125.388 55.728 125.388 125.388v30.65c1.393 2.786 1.393 6.966 1.393 9.752zM1245.518 161.698l-346.906 331.581 346.906 250.776v-582.356zM125.388 904.272h1049.078c39.010 0 69.66-30.65 69.66-69.66v-22.291l-593.502-430.498-594.895 430.498v22.291c0 39.010 32.044 69.66 69.66 69.66zM55.728 742.661l346.906-250.776-346.906-330.188v580.963zM1175.859-11.059h-1050.471c-39.010 0-69.66 30.65-69.66 69.66v25.078l392.882 376.163 185.295-135.14c4.18-4.18 11.146-5.573 16.718-5.573s11.146 1.393 16.718 5.573l185.295 135.14 392.882-376.163v-25.078c0-37.616-32.044-69.66-69.66-69.66z" />
<glyph unicode="&#xe921;" glyph-name="map" horiz-adv-x="1074" d="M537.020 959.538c-134.255 0-244.1-104.963-244.1-241.659 0-32.954 8.544-75.671 19.528-104.963 67.128-140.358 135.476-280.715 202.603-421.073 3.662-8.544 13.426-14.646 21.969-14.646s18.308 6.103 21.969 14.646c67.128 140.358 136.696 280.715 202.603 421.073 10.985 29.292 19.528 72.010 19.528 104.963 0 137.917-111.066 241.659-244.1 241.659v0zM537.020 910.718c108.625 0 195.28-81.774 195.28-192.839 0-23.19-8.544-65.907-15.867-86.656-58.584-124.491-119.609-248.982-179.414-373.473-57.364 125.712-123.271 247.762-179.414 373.473-7.323 20.749-15.867 62.246-15.867 86.656 0 111.066 85.435 192.839 195.28 192.839zM537.020 849.693c-74.451 0-134.255-59.805-134.255-134.255s59.805-134.255 134.255-134.255c74.451 0 134.255 59.805 134.255 134.255s-61.025 134.255-134.255 134.255zM537.020 800.873c47.6 0 85.435-37.836 85.435-85.435s-37.836-85.435-85.435-85.435c-47.6 0-85.435 37.836-85.435 85.435s37.836 85.435 85.435 85.435zM97.64 471.338c-13.426 0-19.528-7.323-24.41-20.749l-73.23-488.2c-2.441-13.426 9.764-28.072 24.41-28.072h1025.221c13.426 0 25.631 14.646 24.41 28.072l-73.23 488.2c-1.221 10.985-12.205 20.749-24.41 20.749h-256.305l-23.19-48.82h258.746l14.646-97.64h-316.11c6.103 9.764-19.528-34.174-25.631-46.379l236.777-296.582h-364.93l-151.342 190.398 106.184 89.097-21.969 45.159-114.727-96.42-169.65 211.147h229.454l-23.19 48.82-257.526 1.221zM113.507 388.344l324.653-405.206h-385.678l61.025 405.206zM692.024 276.058h284.377l18.308-122.050h-205.044l-97.64 122.050zM829.94 105.188h173.311l18.308-122.050h-93.979l-97.64 122.050z" />
<glyph unicode="&#xe922;" glyph-name="map2" horiz-adv-x="947" d="M473.382 959.529c-130.803 0-236.691-100.905-236.691-234.2 0-31.144 8.72-74.745 18.686-102.151 68.516-143.26 138.277-286.521 206.793-429.781 3.737-8.72 18.686-8.72 22.423 0 68.516 143.26 139.523 285.275 206.793 429.781 9.966 27.406 18.686 71.007 18.686 102.151-1.246 150.735-122.083 234.2-236.691 234.2zM473.382 934.614c117.1 0 211.776-89.693 211.776-209.285 0-26.161-7.474-68.516-16.195-92.185-67.27-140.769-137.032-284.029-195.582-404.866-63.533 135.786-132.049 269.080-195.582 404.866-8.72 23.669-16.195 66.024-16.195 92.185 0 120.837 93.431 209.285 211.776 209.285zM473.382 847.412c-68.516 0-124.574-56.058-124.574-124.574s56.058-124.574 124.574-124.574c68.516 0 124.574 56.058 124.574 124.574s-56.058 124.574-124.574 124.574zM473.382 822.497c54.813 0 99.659-44.847 99.659-99.659s-44.847-99.659-99.659-99.659c-54.813 0-99.659 44.847-99.659 99.659 0 56.058 44.847 99.659 99.659 99.659zM12.457 461.232c-7.474 0-12.457-6.229-12.457-12.457v-498.297c0-6.229 6.229-12.457 12.457-12.457h921.849c6.229 0 12.457 6.229 12.457 12.457v498.297c0 6.229-6.229 12.457-12.457 12.457h-293.995l-12.457-24.915h293.995v-124.574h-335.105l-11.212 13.703-12.457-24.915 270.326-337.596h-403.62l-165.684 208.039 129.557 109.625-11.212 23.669-134.54-113.363-196.827 245.411h266.589l-12.457 24.915h-292.749zM24.915 428.843l372.477-465.908h-372.477v465.908zM606.676 286.828h315.173v-149.489h-195.582l-119.591 149.489zM746.2 112.424h175.65v-149.489h-56.058l-119.591 149.489z" />
<glyph unicode="&#xe923;" glyph-name="medal" horiz-adv-x="694" d="M676.807 630.386c0 180.189-149.425 329.614-329.614 329.614s-329.614-149.425-329.614-329.614 145.030-329.614 329.614-329.614 329.614 149.425 329.614 329.614zM61.528 630.386c0 158.215 127.451 285.665 285.665 285.665s285.665-127.451 285.665-285.665-127.451-285.665-285.665-285.665-285.665 127.451-285.665 285.665zM536.172 94.215c8.79 8.79 4.395 21.974-4.395 30.764s-21.974 4.395-30.764-4.395l-92.292-123.056c-8.79-8.79-4.395-21.974 4.395-30.764s21.974-4.395 30.764 4.395l92.292 123.056zM668.017 72.24c13.185 0 21.974 8.79 21.974 21.974s-8.79 21.974-21.974 21.974l-149.425 13.185c-13.185 0-21.974-8.79-21.974-21.974s8.79-21.974 21.974-21.974l149.425-13.185zM408.721-24.446c4.395-13.185 17.579-17.579 30.764-13.185s17.579 17.579 13.185 30.764l-153.82 342.798c-4.395 13.185-17.579 17.579-30.764 13.185s-17.579-17.579-13.185-30.764l153.82-342.798zM558.146 397.459c-4.395 13.185-17.579 17.579-30.764 13.185s-17.579-17.579-13.185-30.764l131.845-298.85c4.395-13.185 17.579-17.579 30.764-13.185s17.579 17.579 13.185 30.764l-131.845 298.85zM188.979 120.584c-8.79 8.79-21.974 13.185-30.764 4.395s-13.185-21.974-4.395-30.764l92.292-123.056c8.79-8.79 21.974-13.185 30.764-4.395s13.185 21.974 4.395 30.764l-92.292 123.056zM21.974 116.189c-13.185 0-21.974-13.185-21.974-21.974 0-13.185 13.185-21.974 21.974-21.974l153.82 13.185c13.185 0 21.974 13.185 21.974 21.974 0 13.185-13.185 21.974-21.974 21.974l-153.82-13.185zM241.717-6.867c-4.395-13.185 0-21.974 13.185-30.764 13.185-4.395 21.974 0 30.764 13.185l79.107 175.794c4.395 13.185 0 21.974-13.185 30.764s-21.974 0-30.764-13.185l-79.107-175.794zM175.794 379.88c4.395 13.185 0 21.974-13.185 30.764-13.185 4.395-21.974 0-30.764-13.185l-131.845-294.455c-4.395-13.185 0-21.974 13.185-30.764s21.974 0 30.764 13.185l131.845 294.455zM193.373 700.704c-8.79 8.79-21.974 8.79-30.764 0s-8.79-21.974 0-30.764l83.502-83.502c8.79-8.79 21.974-8.79 30.764 0s8.79 21.974 0 30.764l-83.502 83.502zM298.85 678.73c13.185 0 21.974 13.185 17.579 26.369 0 13.185-13.185 21.974-26.369 17.579l-114.266-17.579c-13.185 0-21.974-13.185-17.579-26.369s13.185-21.974 26.369-17.579l114.266 17.579zM285.665 599.622c0 13.185-4.395 21.974-17.579 26.369s-26.369-8.79-26.369-17.579l-17.579-114.266c0-13.185 4.395-21.974 17.579-26.369s21.974 4.395 26.369 17.579l17.579 114.266zM232.927 507.33c-8.79-4.395-13.185-17.579-8.79-30.764 4.395-8.79 17.579-13.185 30.764-8.79l105.476 52.738c8.79 8.79 13.185 21.974 4.395 30.764-4.395 13.185-17.579 17.579-26.369 8.79l-105.476-52.738zM426.3 485.356c0-13.185 13.185-21.974 26.369-17.579s21.974 13.185 17.579 26.369l-17.579 114.266c0 13.185-13.185 21.974-26.369 17.579-13.185 0-21.974-13.185-17.579-26.369l17.579-114.266zM355.983 560.069c-8.79 4.395-21.974 0-30.764-8.79-4.395-8.79 0-21.974 13.185-26.369l105.476-52.738c8.79-4.395 21.974 0 30.764 8.79s0 21.974-8.79 30.764l-109.871 48.343zM509.803 661.15c13.185 0 21.974 4.395 26.369 17.579 0 13.185-4.395 21.974-17.579 26.369l-118.661 17.579c-8.79 4.395-21.974-4.395-21.974-17.579s4.395-21.974 17.579-26.369l114.266-17.579zM413.116 617.202c-8.79-8.79-8.79-21.974 0-30.764s21.974-8.79 30.764 0l83.502 83.502c8.79 8.79 8.79 21.974 0 30.764-4.395 8.79-21.974 8.79-30.764 0l-83.502-83.502zM377.957 691.914c4.395-13.185 17.579-17.579 30.764-8.79 8.79 4.395 13.185 17.579 8.79 26.369l-52.738 105.476c-4.395 13.185-17.579 17.579-26.369 8.79s-17.579-17.579-13.185-26.369l52.738-105.476zM364.773 797.391c8.79 8.79 4.395 21.974-8.79 26.369s-21.974 0-30.764-8.79l-52.738-105.476c-4.395-8.79 0-21.974 8.79-30.764 8.79-4.395 21.974 0 30.764 8.79l52.738 109.871z" />
<glyph unicode="&#xe924;" glyph-name="medal2" horiz-adv-x="814" d="M408.153 286.289c182.894 0 331.689 148.795 331.689 331.689s-148.795 331.689-331.689 331.689c-182.894 0-331.689-148.795-331.689-331.689s148.795-331.689 331.689-331.689c0 0 0 0 0 0zM408.153 889.736c149.828 0 271.758-120.896 271.758-270.725s-121.929-271.758-271.758-271.758-270.725 120.896-270.725 270.725c0 0 0 0 0 0 0 149.828 120.896 271.758 270.725 271.758zM814.24 43.463l-151.895 326.523c-67.164-68.198-158.095-107.463-254.192-107.463l-1.033-2.067 152.928-320.323c1.033-3.1 4.133-4.133 7.233-3.1 2.067 1.033 3.1 2.067 3.1 3.1l70.264 146.729c1.033 2.067 4.133 4.133 6.2 3.1l160.161-53.732c3.1-1.033 6.2 1.033 6.2 4.133 1.033 1.033 1.033 2.067 1.033 3.1zM408.153 262.523c-96.097 0-188.061 39.265-255.225 108.496v0l-152.928-327.556c-1.033-3.1 0-6.2 3.1-7.233 1.033-1.033 3.1-1.033 4.133 0l160.161 53.732c3.1 1.033 5.166 0 6.2-3.1l70.264-146.729c1.033-3.1 4.133-4.133 7.233-3.1 2.067 1.033 3.1 2.067 3.1 3.1l152.928 320.323-1.033 2.067h2.067zM408.153 371.019c136.396 0 246.959 110.563 246.959 246.959s-110.563 246.959-246.959 246.959-246.959-109.53-246.959-246.959c0 0 0 0 0 0 0-136.396 110.563-246.959 246.959-246.959zM247.992 660.343l103.33 15.499c2.067 0 4.133 2.067 5.166 3.1l46.498 94.030c2.067 3.1 5.166 4.133 8.266 3.1 1.033-1.033 2.067-2.067 3.1-3.1l46.498-94.030c1.033-2.067 3.1-3.1 5.166-3.1l102.297-15.499c3.1-1.033 5.166-4.133 5.166-7.233 0-1.033-1.033-2.067-1.033-3.1l-75.431-72.331c-1.033-1.033-2.067-3.1-2.067-5.166l17.566-103.33c1.033-3.1-2.067-6.2-5.166-7.233-1.033 0-3.1 0-4.133 1.033l-91.964 48.565c-2.067 1.033-4.133 1.033-6.2 0l-91.964-48.565c-3.1-2.067-7.233 0-8.266 3.1-1.033 1.033-1.033 2.067-1.033 4.133l17.566 103.33c0 2.067 0 4.133-2.067 5.166l-74.398 72.331c-2.067 2.067-2.067 6.2 0 9.3 2.067-1.033 2.067 0 3.1 0z" />
<glyph unicode="&#xe925;" glyph-name="metro" horiz-adv-x="1680" d="M0 592.41v-341.333h527.754l312.451-296.697 312.451 296.697h527.754v682.667h-640.656l-199.549-194.297-199.549 194.297h-640.656v-341.333zM722.051 744.697l131.282-139.159-131.282 126.031-133.908 123.405h-483.118v-525.128h483.118l252.062-246.81 252.062 246.81h483.118v525.128h-483.118l-120.779-110.277-118.154-112.903 233.682 249.436h514.626v-577.641h-509.374l-252.062-246.81-252.062 246.81h-509.374v577.641h514.626l128.656-136.533z" />
<glyph unicode="&#xe926;" glyph-name="news" horiz-adv-x="1104" d="M477.76 636.715h286.656c9.555 0 15.925 6.37 15.925 15.925s-6.37 15.925-15.925 15.925h-286.656c-9.555 0-15.925-6.37-15.925-15.925s6.37-15.925 15.925-15.925zM875.894 445.611h-398.134c-9.555 0-15.925-6.37-15.925-15.925s6.37-15.925 15.925-15.925h398.134c9.555 0 15.925 6.37 15.925 15.925s-6.37 15.925-15.925 15.925zM1098.849 811.894c0 79.627-63.701 143.328-143.328 143.328h-557.387c-79.627 0-143.328-63.701-143.328-143.328v-334.432h-111.477c-79.627 0-143.328-63.701-143.328-143.328v-254.806c0-79.627 63.701-143.328 143.328-143.328h780.342c97.145 0 175.179 78.034 175.179 175.179v700.715zM143.328-32.149c-62.109 0-111.477 49.369-111.477 111.477v254.806c0 62.109 49.369 111.477 111.477 111.477h111.477v-366.283c0-62.109-49.369-111.477-111.477-111.477zM1066.998 111.179c0-79.627-63.701-143.328-143.328-143.328h-689.568c31.851 27.073 52.554 66.886 52.554 111.477v732.566c0 62.109 49.369 111.477 111.477 111.477h557.387c62.109 0 111.477-49.369 111.477-111.477v-700.715zM764.417 238.582h-286.656c-9.555 0-15.925-6.37-15.925-15.925s6.37-15.925 15.925-15.925h286.656c9.555 0 15.925 6.37 15.925 15.925s-6.37 15.925-15.925 15.925z" />
<glyph unicode="&#xe927;" glyph-name="next" d="M654 790c-6.4-6-10-14.4-10-22 0-10.8 16-28.8 134-149.2l134-136.8-896.4-4-7.6-10c-4.4-5.6-8-14.4-8-20s3.6-14.4 8-20l7.6-10 896.4-4-134-136.8c-118-120.4-134-138.4-134-149.2 0-16.4 15.6-32 32.4-32 11.2 0 29.2 16.8 175.2 164.4 89.2 90.4 164.8 169.6 168 176 5.2 10 5.2 13.2 0 23.2-3.2 6.4-78.8 85.6-168.4 176-144.8 146.4-164 164.4-175.2 164.4-7.6 0-16-3.6-22-10z" />
<glyph unicode="&#xe928;" glyph-name="pancil" d="M852.945 959.56c-8.145-1.164-15.127-4.655-20.945-10.473l-527.127-527.127c-5.818-5.818-9.309-12.8-10.473-20.945l-15.127-146.618c-2.327-18.618 11.636-36.073 31.418-38.4 2.327 0 4.655 0 8.145 0l147.782 16.291c8.145 1.164 15.127 4.655 20.945 9.309l527.127 527.127c13.964 13.964 13.964 36.073 0 48.873 0 0 0 0 0 0l-131.491 131.491c-8.145 8.145-18.618 11.636-30.255 10.473zM857.6 875.778l82.618-82.618-16.291-16.291-82.618 82.618c0 0 16.291 16.291 16.291 16.291zM34.909 843.196c-18.618 0-34.909-19.782-34.909-34.909v-837.818c0-18.618 16.291-34.909 34.909-34.909h837.818c18.618 0 34.909 16.291 34.909 34.909v500.364c0 18.618-16.291 34.909-34.909 34.909s-34.909-16.291-34.909-34.909v-465.455h-768v768h465.455c18.618 0 34.909 16.291 34.909 34.909s-16.291 34.909-34.909 34.909h-500.364zM791.273 809.451l82.618-82.618-403.782-402.618-82.618 82.618 403.782 402.618zM358.4 338.178l43.055-43.055-47.709-5.818 4.655 48.873z" />
<glyph unicode="&#xe929;" glyph-name="panorama" horiz-adv-x="898" d="M345.302 175.33v85.73c0 8.335-3.572 15.479-10.716 19.051-20.242 11.907-32.149 34.53-32.149 57.153v223.851c0 36.912 29.767 66.679 66.679 66.679h157.172c36.912 0 66.679-29.767 66.679-66.679v-225.042c0-22.623-11.907-45.247-32.149-57.153-7.144-3.572-10.716-10.716-10.716-19.051v-120.26c15.479 1.191 29.767 3.572 44.056 7.144v101.209c27.386 21.433 42.865 53.581 42.865 88.112v123.833c1.191 0 2.381 0 3.572-1.191 48.819-13.098 97.637-27.386 141.693-42.865l69.060-23.814-46.437 58.344c-5.953 8.335-11.907 14.288-16.67 20.242-26.195 32.149-57.153 63.107-89.302 92.874l-10.716 9.526-11.907-5.953c-14.288-5.953-27.386-11.907-40.484-17.86v10.716c0 4.763 0 8.335-1.191 13.098-5.953 54.772-53.581 97.637-110.735 97.637h-155.981c-58.344 0-107.163-46.437-110.735-103.591 0-2.381 0-4.763 0-7.144v-15.479c-152.409-35.721-257.191-115.498-257.191-211.944 0-11.907 9.526-22.623 22.623-22.623s22.623 9.526 22.623 22.623c0 70.251 88.112 133.358 213.135 165.507v-161.935c0-34.53 16.67-66.679 42.865-88.112v-61.916c8.335-2.381 17.86-4.763 26.195-5.953l17.86-4.763zM547.721 46.735c0-36.912-29.767-66.679-66.679-66.679h-70.251c-36.912 0-66.679 29.767-66.679 66.679v8.335c-15.479 2.381-29.767 4.763-44.056 7.144v-15.479c0-60.726 50.009-110.735 110.735-110.735h70.251c60.726 0 110.735 50.009 110.735 110.735v9.526c-14.288-2.381-29.767-4.763-44.056-5.953v-3.572zM313.153 826.642c0-73.823 59.535-133.358 133.358-133.358s133.358 59.535 133.358 133.358-60.726 133.358-133.358 133.358-133.358-59.535-133.358-133.358zM534.623 826.642c0-48.819-39.293-89.302-89.302-89.302s-89.302 39.293-89.302 89.302 39.293 89.302 89.302 89.302c50.009 0 89.302-39.293 89.302-89.302zM873.972 321.786c-11.907 0-22.623-9.526-22.623-22.623 0-101.209-178.605-186.94-389.358-186.94-42.865 0-83.349 3.572-123.833 9.526l38.102 21.433-54.772 13.098c-22.623 5.953-44.056 10.716-64.298 16.67v0c-48.819 13.098-97.637 27.386-141.693 42.865l-69.060 23.814 45.247-58.344c5.953-8.335 10.716-14.288 16.67-20.242 26.195-32.149 57.153-63.107 89.302-92.874l10.716-9.526 13.098 4.763c19.051 8.335 38.102 15.479 55.963 25.005 57.153-14.288 120.26-21.433 185.749-21.433 244.093 0 434.605 101.209 434.605 230.995-2.381 14.288-11.907 23.814-23.814 23.814z" />
<glyph unicode="&#xe92a;" glyph-name="pencil2" horiz-adv-x="1025" d="M1004.653 784.497l-156.157 156.157c-26.256 26.256-70.478 26.256-98.116 0l-653.646-655.028c-11.055-11.055-17.965-26.256-19.347-41.457l-76.005-273.619c-2.764-9.673 0-19.347 6.91-26.256 5.528-5.528 12.437-8.291 19.347-8.291 2.764 0 5.528 0 6.91 1.382l275.001 76.005c15.201 1.382 29.020 8.291 40.076 19.347l655.028 655.028c27.638 26.256 27.638 70.478 0 96.734zM620.48 731.984l67.714-67.714-494.726-494.726-58.040 58.040c-2.764 2.764-4.146 5.528-4.146 9.673 0 0 0 0 0 1.382 0 2.764 1.382 6.91 4.146 9.673l485.053 483.671zM113.317 170.926l121.609-121.609-167.212-45.603 45.603 167.212zM310.931 71.428c-5.528-5.528-13.819-5.528-19.347 0l-58.040 58.040 494.726 494.726 69.096-69.096-486.435-483.671zM965.96 726.456l-131.282-131.282-175.503 175.503 131.282 131.282c2.764 2.764 6.91 4.146 9.673 4.146 4.146 0 6.91-1.382 9.673-4.146l156.157-156.157c5.528-5.528 5.528-13.819 0-19.347z" />
<glyph unicode="&#xe92b;" glyph-name="phone" d="M403.514 432.947c-27.783 26.46-44.982 58.212-48.951 88.641-2.646 29.106 6.615 59.535 47.628 97.902 13.23 11.907 31.752 27.783 41.013 54.243s2.646 56.889-13.23 87.318c-46.305 56.889-87.318 120.393-128.331 168.021-27.783 27.783-68.796 37.044-99.225 27.783-29.106-9.261-50.274-27.783-68.796-46.305-103.194-103.194-146.853-210.357-128.331-317.519s92.61-207.711 203.742-318.842c43.659-43.659 92.61-92.61 130.977-130.977 111.132-111.132 211.68-185.22 318.842-203.742s214.326 25.137 317.519 128.331c17.199 18.522 37.044 41.013 46.305 68.796 9.261 30.429 1.323 71.442-27.783 99.225-47.628 41.013-111.132 83.349-168.021 128.331-30.429 15.876-60.858 22.491-87.318 13.23s-42.336-26.46-54.243-41.013c-37.044-41.013-67.473-50.274-97.902-47.628-30.429 3.969-62.181 21.168-88.641 48.951zM243.432 873.505l116.424-152.145c9.261-17.199 7.938-22.491 7.938-23.814s-5.292-7.938-18.522-19.845c-55.566-48.951-79.38-109.809-74.088-164.052s35.721-100.548 71.442-136.269c34.398-34.398 60.858-60.858 93.933-93.933 35.721-37.044 82.026-66.15 136.269-71.442s115.101 18.522 164.052 74.088c11.907 13.23 18.522 17.199 19.845 18.522 1.323 0 6.615 1.323 23.814-7.938l152.145-116.424c10.584-10.584 9.261-11.907 6.615-18.522-2.646-7.938-13.23-22.491-26.46-37.044-60.858-60.858-161.406-129.654-247.401-105.84-79.38 13.23-170.667 75.411-276.506 181.251-43.659 43.659-92.61 92.61-130.977 130.977-105.84 105.84-168.021 197.127-181.251 276.506-22.491 85.995 44.982 186.543 105.84 247.401 14.553 13.23 29.106 23.814 37.044 26.46 7.938 1.323 13.23 1.323 19.845-7.938v0z" />
<glyph unicode="&#xe92c;" glyph-name="phone2" d="M377.556 413.34c-30.65 29.257-55.728 72.446-59.907 110.063-4.18 40.403 11.146 82.199 59.907 125.388 13.932 12.539 27.864 25.078 34.83 44.582s2.786 43.189-12.539 71.053c-44.582 58.514-90.558 118.422-130.961 169.97-23.684 23.684-52.941 29.257-76.626 22.291-23.684-9.752-41.796-22.291-61.301-41.796-105.883-105.883-146.286-206.193-128.174-309.29s91.951-206.193 206.193-320.435c45.976-45.976 97.524-97.524 137.927-137.927 115.635-115.635 217.339-188.082 320.435-206.193s204.8 22.291 309.29 128.174c19.505 19.505 32.044 37.616 41.796 61.301 6.966 23.684 2.786 52.941-22.291 76.626-51.548 40.403-112.849 86.378-169.97 130.961-27.864 15.325-51.548 18.112-71.053 12.539-19.505-6.966-32.044-20.898-44.582-34.83-43.189-48.762-86.378-62.694-125.388-59.907s-80.805 27.864-110.063 59.907zM249.382 914.891c41.796-54.335 83.592-110.063 126.781-164.397 12.539-23.684 13.932-37.616 9.752-48.762s-13.932-20.898-27.864-33.437c-52.941-47.369-72.446-100.31-68.267-149.072s32.044-93.344 68.267-126.781c36.223-36.223 64.087-64.087 98.917-98.917 34.83-36.223 79.412-62.694 126.781-68.267 48.762-4.18 101.703 15.325 149.072 68.267 12.539 13.932 22.291 23.684 33.437 27.864s23.684 2.786 48.762-9.752c54.335-41.796 110.063-83.592 164.397-126.781 18.112-18.112 19.505-32.044 15.325-48.762-5.573-16.718-19.505-33.437-34.83-50.155-101.703-101.703-190.868-136.533-284.212-119.815s-193.654 84.985-306.503 199.227c-45.976 45.976-97.524 97.524-137.927 137.927-112.849 112.849-182.509 213.159-199.227 306.503s18.112 182.509 119.815 284.212c16.718 15.325 33.437 29.257 50.155 34.83 15.325 6.966 29.257 5.573 47.369-13.932z" />
<glyph unicode="&#xe92d;" glyph-name="photo" horiz-adv-x="1401" d="M79.627 957.805c-44.591 0-79.627-35.036-79.627-79.627v-859.969c0-44.591 35.036-79.627 79.627-79.627h1242.177c44.591 0 79.627 35.036 79.627 79.627v859.969c0 44.591-35.036 79.627-79.627 79.627h-1242.177zM79.627 925.954h1242.177c27.073 0 47.776-20.703 47.776-47.776v-667.272l-293.026 234.103c-4.778 4.778-12.74 4.778-19.11 1.593l-245.25-168.809-324.877 262.768c-3.185 3.185-7.963 4.778-12.74 3.185-1.593 0-3.185-1.593-4.778-3.185l-437.947-299.397v638.607c0 25.481 20.703 46.184 47.776 46.184v0zM812.193 766.701c-62.109 0-111.477-49.369-111.477-111.477s49.369-111.477 111.477-111.477 111.477 49.369 111.477 111.477-49.369 111.477-111.477 111.477zM804.23 734.85c3.185 0 4.778 0 7.963 0 44.591 0 79.627-35.036 79.627-79.627s-35.036-79.627-79.627-79.627c-44.591 0-79.627 35.036-79.627 79.627 0 41.406 31.851 76.442 71.664 79.627zM477.76 508.71l324.877-262.768c4.778-4.778 12.74-4.778 19.11-1.593l245.25 168.809 304.174-242.065v-151.291c0-27.073-20.703-47.776-47.776-47.776h-1243.77c-27.073 0-47.776 20.703-47.776 47.776v181.549l445.91 307.359z" />
<glyph unicode="&#xe92e;" glyph-name="premium" horiz-adv-x="977" d="M683.743 205.19c0 3.23 0 5.384-1.077 8.614l-27.996 164.744 122.751 119.521c7.537 7.537 10.768 18.305 7.537 29.073s-11.844 17.228-22.612 19.382l-169.052 24.766-76.45 152.9c-4.307 9.691-15.075 16.151-25.842 16.151 0 0 0 0 0 0-10.768 0-20.458-6.461-25.842-16.151l-75.373-153.977-169.052-24.766c-10.768-1.077-19.382-8.614-22.612-19.382s0-21.535 7.537-29.073l121.674-118.444-29.073-169.052c-2.154-10.768 2.154-21.535 11.844-27.996 5.384-3.23 10.768-5.384 16.151-5.384 4.307 0 8.614 1.077 12.921 3.23l151.823 80.757 151.823-79.68c4.307-2.154 8.614-3.23 12.921-3.23 0 0 0 0 0 0 15.075 0 27.996 12.921 27.996 27.996zM595.449 383.933l21.535-127.058-114.137 59.222c-8.614 4.307-18.305 4.307-26.919 0l-114.137-60.299 21.535 127.058c1.077 9.691-1.077 18.305-8.614 24.766l-92.601 89.371 127.058 18.305c9.691 1.077 17.228 7.537 21.535 15.075l59.222 117.367 57.068-115.213c4.307-8.614 11.844-13.998 21.535-15.075l127.058-18.305-91.525-89.371c-6.461-7.537-9.691-17.228-8.614-25.842zM489.926 808.177c16.151 0 27.996 12.921 27.996 27.996v95.832c1.077 15.075-11.844 27.996-27.996 27.996s-27.996-12.921-27.996-27.996v-94.755c0-16.151 12.921-29.073 27.996-29.073zM489.926 127.664c-16.151 0-27.996-12.921-27.996-27.996v-94.755c0-16.151 12.921-27.996 27.996-27.996 16.151 0 27.996 12.921 27.996 27.996v93.678c1.077 16.151-11.844 29.073-27.996 29.073zM948.627 417.312h-94.755c-16.151 0-27.996-12.921-27.996-27.996 0-16.151 12.921-27.996 27.996-27.996h94.755c16.151 0 27.996 12.921 27.996 27.996s-11.844 27.996-27.996 27.996zM156.13 388.24c0 16.151-12.921 27.996-27.996 27.996h-100.139c-16.151 0-27.996-12.921-27.996-27.996 0-16.151 12.921-27.996 27.996-27.996h99.062c16.151 0 29.073 12.921 29.073 27.996zM719.277 119.049c-10.768 10.768-29.073 10.768-39.84 0s-10.768-29.073 0-39.84l134.595-134.595c5.384-5.384 12.921-8.614 20.458-8.614s13.998 3.23 20.458 8.614c10.768 10.768 10.768 29.073 0 39.84l-135.672 134.595zM261.653 119.049l-134.595-134.595c-10.768-10.768-10.768-29.073 0-39.84 5.384-5.384 12.921-8.614 20.458-8.614s13.998 3.23 20.458 8.614l133.518 134.595c10.768 10.768 10.768 29.073 0 39.84s-27.996 10.768-39.84 0zM261.653 658.507c5.384-5.384 12.921-8.614 20.458-8.614s13.998 3.23 20.458 8.614c10.768 10.768 10.768 29.073 0 39.84l-135.672 134.595c-10.768 10.768-29.073 10.768-39.84 0s-10.768-29.073 0-39.84l134.595-134.595zM698.818 649.893c7.537 0 13.998 3.23 20.458 8.614l134.595 134.595c10.768 10.768 10.768 29.073 0 39.84s-29.073 10.768-39.84 0l-135.672-134.595c-10.768-10.768-10.768-29.073 0-39.84 6.461-5.384 12.921-8.614 20.458-8.614z" />
<glyph unicode="&#xe92f;" glyph-name="premium2" horiz-adv-x="849" d="M424.585 959.528c-13.737 0-24.976-11.239-24.976-24.976v-149.854c0-13.737 11.239-24.976 24.976-24.976s24.976 11.239 24.976 24.976v149.854c0 13.737-11.239 24.976-24.976 24.976zM53.698 857.128c-6.244 0-12.488-2.498-17.483-7.493-9.99-9.99-9.99-26.224 0-34.966l106.146-106.146c9.99-9.99 26.224-9.99 34.966 0 9.99 9.99 9.99 24.976 0 34.966l-106.146 106.146c-4.995 4.995-11.239 7.493-17.483 7.493zM795.473 857.128c-6.244 0-12.488-2.498-17.483-7.493l-106.146-106.146c-9.99-9.99-9.99-24.976 0-34.966s26.224-9.99 34.966 0l106.146 106.146c9.99 9.99 9.99 26.224 0 34.966-4.995 4.995-11.239 7.493-17.483 7.493zM673.093 636.094c-1.249 0-1.249 0-2.498 0h-495.766c-1.249 0-1.249 0-2.498 0-7.493 0-14.985-4.995-18.732-9.99l-149.854-212.293c-6.244-9.99-6.244-22.478 2.498-31.22l395.863-433.327c6.244-12.488 22.478-16.234 33.717-9.99 2.498 1.249 4.995 3.746 6.244 4.995l399.61 437.073c7.493 8.741 8.741 21.229 2.498 31.22l-149.854 212.293c-4.995 7.493-12.488 11.239-21.229 11.239v0zM209.795 584.894h162.341l-113.639-137.366-48.702 137.366zM477.034 584.894h162.341l-48.702-137.366c0 0-113.639 137.366-113.639 137.366zM424.585 571.157l122.38-148.605h-244.761c0 0 122.38 148.605 122.38 148.605zM167.337 557.42l47.454-133.62h-142.361l94.907 133.62zM681.834 557.42l94.907-133.62h-142.361l47.454 133.62zM82.42 372.601h151.102l117.385-294.712-268.488 294.712zM285.971 372.601h275.98l-137.366-344.663c0 0-138.615 344.663-138.615 344.663zM615.649 372.601h151.102l-268.488-294.712 117.385 294.712z" />
<glyph unicode="&#xe930;" glyph-name="print" horiz-adv-x="1125" d="M1038.841 767.072v0l-1.237 160.773c0 13.604-11.13 24.734-24.734 24.734h-900.329c-13.604 0-24.734-11.13-24.734-24.734v-160.773h-1.237c-48.232 0-86.57-38.338-86.57-86.57v-367.304c0-48.232 38.338-86.57 86.57-86.57h119.961v-259.71c0-13.604 11.13-24.734 24.734-24.734h676.483c13.604 0 24.734 11.13 24.734 24.734v259.71h106.357c48.232 0 86.57 38.338 86.57 86.57v367.304c0 48.232-38.338 86.57-86.57 86.57zM137.275 903.111h852.097v-136.039h-852.097v136.039zM881.778-8.348h-625.778v363.594h627.014v-363.594zM1075.942 313.198c0-21.024-16.077-37.101-37.101-37.101h-107.594v77.913h28.444c13.604 0 24.734 11.13 24.734 24.734s-11.13 24.734-24.734 24.734h-793.971c-13.604 0-24.734-11.13-24.734-24.734s11.13-24.734 24.734-24.734h40.812v-77.913h-119.961c-21.024 0-37.101 16.077-37.101 37.101v367.304c0 21.024 16.077 37.101 37.101 37.101h952.271c21.024 0 37.101-16.077 37.101-37.101v-367.304zM918.879 634.744c-37.101 0-66.783-29.681-66.783-66.783s29.681-66.783 66.783-66.783c37.101 0 66.783 29.681 66.783 66.783s-29.681 66.783-66.783 66.783zM918.879 550.647c-9.894 0-17.314 7.42-17.314 17.314s7.42 17.314 17.314 17.314c9.894 0 17.314-7.42 17.314-17.314s-7.42-17.314-17.314-17.314zM724.715 634.744c-37.101 0-66.783-29.681-66.783-66.783s29.681-66.783 66.783-66.783c37.101 0 66.783 29.681 66.783 66.783s-29.681 66.783-66.783 66.783zM724.715 550.647c-9.894 0-17.314 7.42-17.314 17.314s7.42 17.314 17.314 17.314c9.894 0 17.314-7.42 17.314-17.314s-7.42-17.314-17.314-17.314zM364.831 201.894h395.749c13.604 0 24.734 11.13 24.734 24.734s-11.13 24.734-24.734 24.734h-395.749c-13.604 0-24.734-11.13-24.734-24.734s11.13-24.734 24.734-24.734zM364.831 70.802h395.749c13.604 0 24.734 11.13 24.734 24.734s-11.13 24.734-24.734 24.734h-395.749c-13.604 0-24.734-11.13-24.734-24.734s11.13-24.734 24.734-24.734z" />
<glyph unicode="&#xe931;" glyph-name="rocket" horiz-adv-x="1016" d="M695.182 735.858c-26.169 0-50.062-10.24-68.267-28.444s-28.444-42.098-28.444-68.267 10.24-50.062 28.444-68.267 42.098-28.444 68.267-28.444 50.062 10.24 68.267 28.444 28.444 42.098 28.444 68.267-10.24 50.062-28.444 68.267-43.236 28.444-68.267 28.444zM724.764 608.427c-7.964-7.964-18.204-12.516-29.582-12.516s-21.618 4.551-29.582 12.516c-7.964 7.964-12.516 18.204-12.516 29.582s4.551 21.618 12.516 29.582c7.964 7.964 18.204 12.516 29.582 12.516s21.618-4.551 29.582-12.516c17.067-14.791 17.067-42.098 0-59.164zM195.698 287.573c10.24 10.24 10.24 27.307 0 38.684-10.24 10.24-27.307 10.24-38.684 0l-157.013-158.151c-10.24-10.24-10.24-27.307 0-38.684 5.689-5.689 12.516-7.964 19.342-7.964s13.653 2.276 19.342 7.964l157.013 158.151zM237.796 181.76c-10.24 10.24-27.307 10.24-38.684 0l-163.84-163.84c-10.24-10.24-10.24-27.307 0-38.684 5.689-5.689 12.516-7.964 19.342-7.964s13.653 2.276 19.342 7.964l163.84 163.84c10.24 10.24 10.24 27.307 0 38.684zM343.609 139.662l-158.151-157.013c-10.24-10.24-10.24-27.307 0-38.684 5.689-5.689 12.516-7.964 19.342-7.964s13.653 2.276 19.342 7.964l157.013 157.013c10.24 10.24 10.24 27.307 0 38.684-10.24 10.24-27.307 10.24-37.547 0zM1008.071 952.036c-5.689 5.689-14.791 9.102-23.893 7.964-3.413 0-78.507-12.516-180.907-52.338-60.302-22.756-117.191-50.062-170.667-81.92-64.853-38.684-122.88-83.058-171.804-131.982l-204.8-39.822c-5.689-1.138-10.24-3.413-13.653-7.964l-186.596-185.458c-7.964-7.964-10.24-21.618-4.551-31.858 4.551-9.102 13.653-14.791 23.893-14.791 2.276 0 3.413 0 5.689 0l209.351 40.96c-13.653-27.307-26.169-54.613-38.684-83.058-4.551-10.24-2.276-21.618 5.689-29.582l51.2-51.2-47.787-47.787c-10.24-10.24-10.24-27.307 0-38.684 5.689-5.689 12.516-7.964 19.342-7.964s13.653 2.276 19.342 7.964l47.787 47.787 51.2-51.2c5.689-5.689 12.516-7.964 19.342-7.964 3.413 0 6.827 1.138 10.24 2.276 28.444 11.378 56.889 25.031 83.058 38.684l-40.96-209.351c-2.276-11.378 3.413-23.893 13.653-29.582 4.551-2.276 7.964-3.413 12.516-3.413 6.827 0 13.653 2.276 19.342 7.964l185.458 186.596c3.413 3.413 6.827 9.102 7.964 13.653l39.822 204.8c48.924 50.062 93.298 106.951 131.982 171.804 31.858 52.338 59.164 110.364 81.92 170.667 38.684 102.4 51.2 178.631 52.338 180.907 2.276 9.102-1.138 18.204-6.827 23.893zM157.013 485.547l117.191 116.053 126.293 25.031c-27.307-34.133-52.338-69.404-76.231-108.089l-167.253-32.996zM657.636 218.169l-116.053-117.191 32.996 167.253c38.684 22.756 75.093 48.924 108.089 76.231l-25.031-126.293zM912.498 765.44c-34.133-89.884-97.849-218.453-203.662-325.404-48.924-48.924-105.813-92.16-170.667-130.844-1.138 0-2.276-1.138-3.413-2.276-34.133-20.48-71.68-38.684-109.227-54.613l-38.684 38.684 77.369 77.369c10.24 10.24 10.24 27.307 0 38.684-10.24 10.24-27.307 10.24-38.684 0l-77.369-77.369-39.822 38.684c17.067 38.684 35.271 75.093 54.613 110.364 1.138 1.138 1.138 2.276 2.276 3.413 37.547 64.853 81.92 121.742 130.844 170.667 106.951 105.813 235.52 169.529 325.404 203.662 54.613 20.48 101.262 34.133 131.982 40.96-6.827-30.72-20.48-77.369-40.96-131.982z" />
<glyph unicode="&#xe932;" glyph-name="rocket2" d="M1010.526 959.49c-117.221 0-276.211-41.768-417.684-128-57.937-35.032-113.179-76.8-161.684-126.653-28.295 2.695-53.895 5.389-78.147 5.389-74.105 2.695-132.042-6.737-180.547-29.642-66.021-29.642-114.526-82.189-168.421-157.642-4.042-6.737-2.695-14.821 2.695-18.863 1.347-1.347 2.695-1.347 4.042-1.347l265.432-79.495 211.537-211.537 79.495-265.432c2.695-6.737 9.432-10.779 17.516-9.432 1.347 0 2.695 1.347 4.042 2.695 74.105 53.895 128 102.4 157.642 168.421 29.642 64.674 36.379 145.516 22.905 260.042 160.337 156.295 256 384 256 579.368-1.347 6.737-8.084 12.126-14.821 12.126zM995.705 931.196c-6.737-268.126-200.758-603.621-494.484-696.589l-203.453 203.453c51.2 164.379 171.116 288.337 307.2 370.526 133.389 79.495 280.253 119.916 390.737 122.611zM727.579 770.859c-59.284 0-107.789-48.505-107.789-107.789s48.505-107.789 107.789-107.789 107.789 48.505 107.789 107.789-48.505 107.789-107.789 107.789zM727.579 743.911c44.463 0 80.842-36.379 80.842-80.842s-36.379-80.842-80.842-80.842-80.842 36.379-80.842 80.842 36.379 80.842 80.842 80.842zM316.632 683.28c26.947 0 56.589-1.347 90.274-4.042-57.937-64.674-103.747-140.126-132.042-227.705l-237.137 71.411c48.505 63.326 91.621 109.137 145.516 133.389 36.379 17.516 79.495 25.6 133.389 26.947zM742.4 343.743c9.432-101.053 2.695-169.768-22.905-225.011-25.6-53.895-70.063-98.358-133.389-145.516l-71.411 237.137c84.884 28.295 161.684 74.105 227.705 133.389zM202.105 314.101c-4.042 0-6.737-1.347-9.432-4.042l-80.842-80.842c-5.389-5.389-5.389-13.474 0-18.863s13.474-5.389 18.863 0l80.842 80.842c5.389 5.389 5.389 13.474 0 18.863-2.695 2.695-5.389 4.042-9.432 4.042zM296.421 246.733c-4.042 0-6.737-1.347-9.432-4.042l-161.684-161.684c-5.389-5.389-5.389-13.474 0-18.863s13.474-5.389 18.863 0c0 0 0 0 0 0l161.684 161.684c5.389 5.389 5.389 13.474 0 18.863-2.695 2.695-5.389 4.042-9.432 4.042zM363.789 152.417c-4.042 0-6.737-1.347-9.432-4.042l-80.842-80.842c-5.389-5.389-5.389-13.474 0-18.863s13.474-5.389 18.863 0c0 0 0 0 0 0l80.842 80.842c5.389 5.389 5.389 13.474 0 18.863-2.695 2.695-5.389 4.042-9.432 4.042z" />
<glyph unicode="&#xe933;" glyph-name="route" horiz-adv-x="1022" d="M858.443 959.613c89.932 0 163.513-70.515 163.513-163.513 0-22.483-5.11-52.12-13.285-73.581-43.944-94.020-87.888-189.062-131.832-283.082-3.066-7.154-11.242-12.263-18.395-12.263h-275.928c-51.098 0-91.976-40.878-91.976-91.976s40.878-91.976 91.976-91.976h122.635c84.822 0 153.293-68.471 153.293-153.293s-68.471-153.293-153.293-153.293h-521.198c-8.176 0-15.329 5.11-18.395 12.263-50.076 106.283-102.196 211.545-151.25 317.828-8.176 22.483-14.307 54.164-14.307 79.713 0 104.24 83.8 183.952 183.952 183.952 101.174 0 183.952-79.713 183.952-183.952 0-25.549-6.132-57.23-14.307-79.713-45.988-96.064-91.976-192.128-136.942-288.192h488.495c62.339 0 112.415 50.076 112.415 112.415s-50.076 112.415-112.415 112.415h-122.635c-73.581 0-132.854 59.273-132.854 132.854s59.273 132.854 132.854 132.854h243.226c-39.856 84.822-79.713 168.623-118.547 253.445-7.154 20.439-13.285 50.076-13.285 73.581 1.022 94.020 74.603 163.513 164.535 163.513zM858.443 918.735c-68.471 0-122.635-50.076-122.635-122.635 0-15.329 5.11-45.988 10.22-59.273 36.79-79.713 74.603-160.447 112.415-240.16 36.79 80.735 74.603 158.403 112.415 240.16 5.11 12.263 10.22 43.944 10.22 59.273 0 72.559-54.164 122.635-122.635 122.635zM858.443 867.637c38.834 0 71.537-32.703 71.537-71.537s-32.703-71.537-71.537-71.537c-38.834 0-71.537 32.703-71.537 71.537s32.703 71.537 71.537 71.537zM858.443 826.759c-17.373 0-30.659-13.285-30.659-30.659s13.285-30.659 30.659-30.659c17.373 0 30.659 13.285 30.659 30.659s-13.285 30.659-30.659 30.659zM183.952 489.514c-79.713 0-143.074-60.295-143.074-143.074 0-17.373 6.132-49.054 12.263-64.383 43.944-91.976 87.888-183.952 130.81-275.928 42.922 91.976 88.91 184.974 130.81 275.928 6.132 15.329 12.263 47.010 12.263 64.383 0 82.778-63.361 143.074-143.074 143.074v0zM183.952 438.416c50.076 0 91.976-41.9 91.976-91.976s-41.9-91.976-91.976-91.976c-50.076 0-91.976 41.9-91.976 91.976 0 51.098 41.9 91.976 91.976 91.976zM183.952 397.538c-28.615 0-51.098-22.483-51.098-51.098s22.483-51.098 51.098-51.098c28.615 0 51.098 22.483 51.098 51.098s-22.483 51.098-51.098 51.098z" />
<glyph unicode="&#xe934;" glyph-name="sale" horiz-adv-x="1158" d="M1143.638-26.693c-36.020 9.005-92.623 9.005-163.377 7.719-113.206-2.573-270.151-5.146-424.523 36.020l-72.040 19.296-415.518 97.769c-7.719 3.859-24.442 7.719-29.588 11.578 0 2.573 1.286 7.719 3.859 16.724 14.151 50.171 91.337 47.598 110.633 42.452 1.286 0 1.286 0 2.573 0l213.548-33.447c1.286-1.286 1.286-2.573 2.573-5.146 12.864-19.296 37.307-23.156 61.749-25.729l194.251-38.593h1.286c7.719-1.286 47.598-5.146 93.91-5.146 50.171 0 106.774 5.146 140.221 25.729 9.005 5.146 11.578 18.010 6.432 27.015s-18.010 11.578-27.015 6.432c-43.739-27.015-163.377-19.296-208.402-14.151l-194.251 38.593c-11.578 1.286-33.447 5.146-36.020 9.005 0 1.286-3.859 6.432 2.573 30.874 6.432 25.729 43.739 48.884 99.055 42.452l138.935-27.015 3.859 1.286c2.573 1.286 295.879 84.905 478.553-55.317 9.005-6.432 20.583-5.146 27.015 3.859s5.146 20.583-3.859 27.015c-82.332 63.035-196.824 93.91-331.899 88.764-88.764-3.859-156.945-20.583-174.955-25.729l-129.93 25.729h-1.286c-78.472 9.005-131.216-28.302-141.508-70.754-1.286-5.146-2.573-11.578-3.859-18.010l-203.256 30.874c-46.312 10.291-138.935 1.286-158.231-72.040-3.859-15.437-9.005-34.734 2.573-50.171 9.005-11.578 25.729-16.724 50.171-23.156l416.804-97.769 72.040-19.296c160.804-42.452 319.035-39.879 434.814-37.307 68.181 1.286 122.211 2.573 153.085-6.432 1.286 0 3.859-1.286 5.146-1.286 9.005 0 16.724 5.146 18.010 14.151 2.573 10.291-3.859 20.583-14.151 23.156zM517.146 457.005c-1.286 0-3.859 0-5.146 1.286-10.291 2.573-16.724 12.864-14.151 23.156l123.497 463.116c2.573 10.291 12.864 16.724 23.156 14.151s16.724-12.864 14.151-23.156l-123.497-463.116c-2.573-10.291-10.291-15.437-18.010-15.437zM713.97 457.005c-52.744 0-96.482 39.879-96.482 90.050v61.749c0 50.171 43.739 90.050 96.482 90.050s96.482-39.879 96.482-90.050v-61.749c0-50.171-43.739-90.050-96.482-90.050zM713.97 658.975c-32.161 0-57.889-23.156-57.889-51.457v-61.749c0-28.302 25.729-51.457 57.889-51.457s57.889 23.156 57.889 51.457v61.749c0 29.588-25.729 51.457-57.889 51.457zM443.819 718.151c-52.744 0-96.482 39.879-96.482 90.050v61.749c0 50.171 43.739 90.050 96.482 90.050s96.482-39.879 96.482-90.050v-61.749c0-50.171-43.739-90.050-96.482-90.050zM443.819 920.121c-32.161 0-57.889-23.156-57.889-51.457v-61.749c0-28.302 25.729-51.457 57.889-51.457s57.889 23.156 57.889 51.457v61.749c0 28.302-25.729 51.457-57.889 51.457z" />
<glyph unicode="&#xe935;" glyph-name="sale2" horiz-adv-x="687" d="M300.463 434.526c-1.347 0-4.042 0-5.389 1.347-10.779 2.695-17.516 13.474-14.821 24.253l86.232 323.368c2.695 10.779 13.474 17.516 24.253 14.821s17.516-13.474 14.821-24.253l-86.232-323.368c-1.347-10.779-10.779-16.168-18.863-16.168zM437.895 434.526c-40.421 0-74.105 30.989-74.105 70.063v43.116c0 37.726 33.684 70.063 74.105 70.063s74.105-30.989 74.105-70.063v-43.116c0-39.074-33.684-70.063-74.105-70.063zM437.895 576c-18.863 0-33.684-13.474-33.684-29.642v-43.116c0-16.168 14.821-29.642 33.684-29.642s33.684 13.474 33.684 29.642v43.116c0 16.168-14.821 29.642-33.684 29.642zM249.263 616.421c-40.421 0-74.105 30.989-74.105 70.063v43.116c0 37.726 33.684 70.063 74.105 70.063s74.105-30.989 74.105-70.063v-43.116c0-39.074-33.684-70.063-74.105-70.063zM249.263 757.895c-18.863 0-33.684-13.474-33.684-29.642v-43.116c0-16.168 14.821-29.642 33.684-29.642s33.684 13.474 33.684 29.642v43.116c0 16.168-14.821 29.642-33.684 29.642zM507.958 81.516c-24.253 5.389-55.242 10.779-90.274 13.474 94.316 118.568 269.474 361.095 269.474 521.432 0 189.979-153.6 343.579-343.579 343.579s-343.579-153.6-343.579-343.579c0-160.337 175.158-402.863 269.474-521.432-33.684-2.695-66.021-6.737-90.274-12.126-21.558-5.389-78.147-18.863-78.147-66.021 0-49.853 66.021-63.326 91.621-68.716 40.421-8.084 94.316-12.126 150.905-12.126s110.484 4.042 150.905 12.126c25.6 5.389 91.621 18.863 91.621 68.716 0 47.158-59.284 60.632-78.147 64.674zM343.579 919.579c167.074 0 303.158-136.084 303.158-303.158 0-175.158-239.832-472.926-303.158-548.379-63.326 75.453-303.158 373.221-303.158 548.379 0 167.074 136.084 303.158 303.158 303.158zM343.579-23.579c-111.832 0-202.105 17.516-202.105 40.421 0 18.863 68.716 35.032 158.989 39.074 14.821-18.863 25.6-29.642 26.947-32.337 4.042-4.042 9.432-6.737 14.821-6.737s10.779 2.695 14.821 6.737c2.695 2.695 12.126 13.474 26.947 32.337 92.968-4.042 161.684-20.211 161.684-39.074 0-22.905-90.274-40.421-202.105-40.421z" />
<glyph unicode="&#xe936;" glyph-name="search" horiz-adv-x="1028" d="M380.136 888.95c172.808 0 312.699-140.093 312.699-312.699s-140.093-312.699-312.699-312.699-312.699 139.892-312.699 312.699c0 172.607 140.093 312.699 312.699 312.699 0 0 0 0 0 0zM380.136 956.387c-209.938-0.201-380.136-170.6-379.936-380.538 0-152.737 91.522-290.421 232.016-350.031 194.684-79.078 416.464 14.652 495.341 209.336 77.472 190.67-11.039 408.436-199.301 491.127-46.965 19.87-97.142 30.106-148.121 30.106v0 0zM1008.345 3.036l-316.713 316.513c-19.87 19.87-46.764 25.289-59.81 12.243s-7.627-40.141 12.243-59.81l316.713-316.513c19.87-19.87 46.764-25.289 59.81-12.243s7.426 39.94-12.243 59.81z" />
<glyph unicode="&#xe937;" glyph-name="search_saved" horiz-adv-x="1028" d="M1008.543 2.848l-316.776 316.575c-19.874 19.874-46.774 25.294-59.822 12.245s-7.628-40.149 12.245-59.822l316.776-316.575c19.874-19.874 46.774-25.294 59.822-12.245s7.428 39.948-12.245 59.822zM692.972 571.358c-2.409-170.633-141.525-308.144-312.761-308.144-172.841 0-312.761 140.12-312.761 312.761s140.12 312.961 312.761 312.961c16.863 0 33.123-1.405 49.183-3.814 6.625 23.487 18.669 44.565 34.93 61.829-27.502 6.223-55.807 9.435-84.112 9.435v0c-209.979-0.201-380.211-170.633-380.010-380.612 0-152.767 91.54-290.478 232.061-350.099 194.723-79.094 416.546 14.654 495.439 209.377 23.889 59.019 32.119 120.648 26.097 180.068-20.677-15.859-41.554-30.312-60.826-43.762zM737.336 956.186c-26.298 0-51.391-8.632-72.067-24.491-20.677 15.859-45.77 24.491-72.067 24.491-65.443 0-118.44-53.197-118.44-118.44 0-2.409 0-4.818 0.201-7.428 5.219-96.558 111.213-168.827 181.273-216.805l9.034-6.223 9.034 6.223c70.060 47.978 175.853 120.447 181.273 216.805 0.201 2.81 0.201 5.219 0.201 7.628 0.201 65.041-52.997 118.239-118.44 118.239zM665.269 669.522c-51.792 35.733-135.302 96.96-138.916 163.808-0.201 1.807-0.201 3.212-0.201 4.416 0 36.937 30.112 67.049 67.049 67.049 17.666 0 34.528-6.825 47.175-19.472l24.892-24.692 24.892 24.692c12.647 12.446 29.309 19.472 47.175 19.472 36.937 0 67.049-30.112 67.049-67.049 0-1.204 0-2.61-0.201-4.617-3.613-66.647-87.123-127.674-138.916-163.607z" />
<glyph unicode="&#xe938;" glyph-name="share" horiz-adv-x="861" d="M702.936 643.8c87.563 0 158.1 70.537 158.1 158.1s-70.537 158.1-158.1 158.1-158.1-70.537-158.1-158.1c0-32.836 9.729-62.024 26.755-87.563l-299.173-166.613c-29.188 30.404-69.321 48.646-114.318 48.646-87.563 0-158.1-70.537-158.1-158.1s70.537-158.1 158.1-158.1c44.998 0 85.131 19.458 114.318 49.862l290.66-160.532c-12.162-21.891-19.458-48.646-19.458-75.401 0-87.563 70.537-158.1 158.1-158.1s158.1 70.537 158.1 158.1-70.537 158.1-158.1 158.1c-42.565 0-80.266-17.026-108.238-43.781l-293.093 161.748c9.729 20.675 15.81 43.781 15.81 68.105s-6.081 47.43-15.81 68.105l304.038 169.045c27.971-19.458 60.808-31.62 98.508-31.62zM812.39 94.1c0-60.808-48.646-109.454-109.454-109.454s-109.454 48.646-109.454 109.454 48.646 109.454 109.454 109.454 109.454-48.646 109.454-109.454zM158.1 330.033c-60.808 0-109.454 48.646-109.454 109.454s48.646 109.454 109.454 109.454 109.454-48.646 109.454-109.454-48.646-109.454-109.454-109.454zM593.482 801.9c0 60.808 48.646 109.454 109.454 109.454s109.454-48.646 109.454-109.454-48.646-109.454-109.454-109.454c-29.188 0-55.943 12.162-75.401 30.404l-9.729 17.026-3.648-2.432c-13.378 18.242-20.675 40.133-20.675 64.456z" />
<glyph unicode="&#xe939;" glyph-name="skip-track" horiz-adv-x="585" d="M563.67 503.754l-437.048 434.598c-29 29-75.973 29-104.973 0s-29-75.564 0-104.156l388.442-385.991-388.442-386.4c-29-29-29-75.564 0-104.156 29-29 75.973-29 104.973 0l437.048 434.598c15.521 15.521 22.465 35.944 21.24 55.959 1.225 20.014-5.718 40.437-21.24 55.55z" />
<glyph unicode="&#xe93a;" glyph-name="sun" d="M512 959.55c-20.242 0-35.721-15.479-35.721-35.721v-190.512c0-20.242 15.479-35.721 35.721-35.721s35.721 15.479 35.721 35.721v190.512c0 20.242-15.479 35.721-35.721 35.721zM175.033 820.238c-9.526 0-17.86-3.572-25.005-10.716-14.288-14.288-14.288-36.912 0-51.2l134.549-134.549c14.288-14.288 36.912-14.288 51.2 0s14.288 36.912 0 51.2l-135.74 134.549c-5.953 7.144-15.479 10.716-25.005 10.716zM848.967 820.238c-9.526 0-17.86-3.572-25.005-10.716l-134.549-134.549c-14.288-14.288-14.288-36.912 0-51.2s36.912-14.288 51.2 0l134.549 134.549c14.288 14.288 14.288 36.912 0 51.2-8.335 7.144-17.86 10.716-26.195 10.716zM512 649.968c-111.926 0-202.419-90.493-202.419-202.419s90.493-202.419 202.419-202.419c111.926 0 202.419 90.493 202.419 202.419s-90.493 202.419-202.419 202.419zM512 578.526c72.633 0 130.977-58.344 130.977-130.977s-58.344-130.977-130.977-130.977c-72.633 0-130.977 58.344-130.977 130.977s58.344 130.977 130.977 130.977zM35.721 483.271c-20.242 0-35.721-15.479-35.721-35.721s15.479-35.721 35.721-35.721h190.512c20.242 0 35.721 15.479 35.721 35.721s-15.479 35.721-35.721 35.721h-190.512zM797.767 483.271c-20.242 0-35.721-15.479-35.721-35.721s15.479-35.721 35.721-35.721h190.512c20.242 0 35.721 15.479 35.721 35.721s-15.479 35.721-35.721 35.721h-190.512zM309.581 282.043c-9.526 0-17.86-3.572-25.005-10.716l-134.549-134.549c-14.288-14.288-14.288-36.912 0-51.2s36.912-14.288 51.2 0l134.549 134.549c14.288 14.288 14.288 36.912 0 51.2-7.144 7.144-16.67 10.716-26.195 10.716v0zM714.419 282.043c-9.526 0-17.86-3.572-25.005-10.716-14.288-14.288-14.288-36.912 0-51.2l134.549-134.549c14.288-14.288 36.912-14.288 51.2 0s14.288 36.912 0 51.2l-134.549 134.549c-8.335 7.144-17.86 10.716-26.195 10.716v0zM512 197.503c-20.242 0-35.721-15.479-35.721-35.721v-190.512c0-20.242 15.479-35.721 35.721-35.721s35.721 15.479 35.721 35.721v190.512c0 20.242-15.479 35.721-35.721 35.721z" />
<glyph unicode="&#xe93b;" glyph-name="table" horiz-adv-x="1347" d="M1320.421 960h-1293.474c-16.168 0-26.947-10.779-26.947-26.947v-970.105c0-16.168 10.779-26.947 26.947-26.947h1293.474c16.168 0 26.947 10.779 26.947 26.947v970.105c0 16.168-10.779 26.947-26.947 26.947zM1293.474 798.316h-377.263v107.789h377.263v-107.789zM485.053 798.316v107.789h377.263v-107.789h-377.263zM862.316 744.421v-754.526h-377.263v754.526h377.263zM431.158 906.105v-107.789h-377.263v107.789h377.263zM53.895 744.421h377.263v-754.526h-377.263v754.526zM916.211-10.105v754.526h377.263v-754.526h-377.263zM296.421 474.947h-107.789c-16.168 0-26.947-10.779-26.947-26.947s10.779-26.947 26.947-26.947h107.789c16.168 0 26.947 10.779 26.947 26.947s-10.779 26.947-26.947 26.947zM296.421 313.263h-107.789c-16.168 0-26.947-10.779-26.947-26.947s10.779-26.947 26.947-26.947h107.789c16.168 0 26.947 10.779 26.947 26.947s-10.779 26.947-26.947 26.947zM296.421 151.579h-107.789c-16.168 0-26.947-10.779-26.947-26.947s10.779-26.947 26.947-26.947h107.789c16.168 0 26.947 10.779 26.947 26.947s-10.779 26.947-26.947 26.947zM619.789 421.053h107.789c16.168 0 26.947 10.779 26.947 26.947s-10.779 26.947-26.947 26.947h-107.789c-16.168 0-26.947-10.779-26.947-26.947s10.779-26.947 26.947-26.947zM619.789 259.368h107.789c16.168 0 26.947 10.779 26.947 26.947s-10.779 26.947-26.947 26.947h-107.789c-16.168 0-26.947-10.779-26.947-26.947s10.779-26.947 26.947-26.947zM727.579 151.579h-107.789c-16.168 0-26.947-10.779-26.947-26.947s10.779-26.947 26.947-26.947h107.789c16.168 0 26.947 10.779 26.947 26.947s-10.779 26.947-26.947 26.947zM1158.737 474.947h-107.789c-16.168 0-26.947-10.779-26.947-26.947s10.779-26.947 26.947-26.947h107.789c16.168 0 26.947 10.779 26.947 26.947s-10.779 26.947-26.947 26.947zM1158.737 313.263h-107.789c-16.168 0-26.947-10.779-26.947-26.947s10.779-26.947 26.947-26.947h107.789c16.168 0 26.947 10.779 26.947 26.947s-10.779 26.947-26.947 26.947zM1158.737 151.579h-107.789c-16.168 0-26.947-10.779-26.947-26.947s10.779-26.947 26.947-26.947h107.789c16.168 0 26.947 10.779 26.947 26.947s-10.779 26.947-26.947 26.947zM188.632 582.737h107.789c16.168 0 26.947 10.779 26.947 26.947s-10.779 26.947-26.947 26.947h-107.789c-16.168 0-26.947-10.779-26.947-26.947s10.779-26.947 26.947-26.947zM619.789 582.737h107.789c16.168 0 26.947 10.779 26.947 26.947s-10.779 26.947-26.947 26.947h-107.789c-16.168 0-26.947-10.779-26.947-26.947s10.779-26.947 26.947-26.947zM1158.737 636.632h-107.789c-16.168 0-26.947-10.779-26.947-26.947s10.779-26.947 26.947-26.947h107.789c16.168 0 26.947 10.779 26.947 26.947s-10.779 26.947-26.947 26.947z" />
<glyph unicode="&#xe93c;" glyph-name="table2" horiz-adv-x="1360" d="M1345.908 960h-1332.033c-8.325 0-13.875-5.55-13.875-13.875v-999.024c0-8.325 5.55-13.875 13.875-13.875h1332.033c8.325 0 13.875 5.55 13.875 13.875v999.024c0 8.325-5.55 13.875-13.875 13.875zM1332.033 793.496h-416.26v138.753h416.26v-138.753zM471.762 793.496v138.753h416.26v-138.753h-416.26zM888.022 765.745v-804.77h-416.26v804.77h416.26zM444.011 932.249v-138.753h-416.26v138.753h416.26zM27.751 765.745h416.26v-804.77h-416.26v804.77zM915.772-39.024v804.77h416.26v-804.77h-416.26zM291.382 460.488h-111.003c-8.325 0-13.875-5.55-13.875-13.875s5.55-13.875 13.875-13.875h111.003c8.325 0 13.875 5.55 13.875 13.875s-5.55 13.875-13.875 13.875zM291.382 293.984h-111.003c-8.325 0-13.875-5.55-13.875-13.875s5.55-13.875 13.875-13.875h111.003c8.325 0 13.875 5.55 13.875 13.875s-5.55 13.875-13.875 13.875zM291.382 127.48h-111.003c-8.325 0-13.875-5.55-13.875-13.875s5.55-13.875 13.875-13.875h111.003c8.325 0 13.875 5.55 13.875 13.875s-5.55 13.875-13.875 13.875zM624.39 432.737h111.003c8.325 0 13.875 5.55 13.875 13.875s-5.55 13.875-13.875 13.875h-111.003c-8.325 0-13.875-5.55-13.875-13.875s5.55-13.875 13.875-13.875zM624.39 266.233h111.003c8.325 0 13.875 5.55 13.875 13.875s-5.55 13.875-13.875 13.875h-111.003c-8.325 0-13.875-5.55-13.875-13.875s5.55-13.875 13.875-13.875zM735.393 127.48h-111.003c-8.325 0-13.875-5.55-13.875-13.875s5.55-13.875 13.875-13.875h111.003c8.325 0 13.875 5.55 13.875 13.875s-5.55 13.875-13.875 13.875zM1179.404 460.488h-111.003c-8.325 0-13.875-5.55-13.875-13.875s5.55-13.875 13.875-13.875h111.003c8.325 0 13.875 5.55 13.875 13.875s-5.55 13.875-13.875 13.875zM1179.404 293.984h-111.003c-8.325 0-13.875-5.55-13.875-13.875s5.55-13.875 13.875-13.875h111.003c8.325 0 13.875 5.55 13.875 13.875s-5.55 13.875-13.875 13.875zM1179.404 127.48h-111.003c-8.325 0-13.875-5.55-13.875-13.875s5.55-13.875 13.875-13.875h111.003c8.325 0 13.875 5.55 13.875 13.875s-5.55 13.875-13.875 13.875zM180.379 599.241h111.003c8.325 0 13.875 5.55 13.875 13.875s-5.55 13.875-13.875 13.875h-111.003c-8.325 0-13.875-5.55-13.875-13.875s5.55-13.875 13.875-13.875zM624.39 599.241h111.003c8.325 0 13.875 5.55 13.875 13.875s-5.55 13.875-13.875 13.875h-111.003c-8.325 0-13.875-5.55-13.875-13.875s5.55-13.875 13.875-13.875zM1179.404 626.992h-111.003c-8.325 0-13.875-5.55-13.875-13.875s5.55-13.875 13.875-13.875h111.003c8.325 0 13.875 5.55 13.875 13.875s-5.55 13.875-13.875 13.875z" />
<glyph unicode="&#xe93d;" glyph-name="taxi" horiz-adv-x="2289" d="M875.355-64c-99.097 0-181.677 82.581-181.677 181.677s82.581 181.677 181.677 181.677 181.677-82.581 181.677-181.677-82.581-181.677-181.677-181.677zM875.355 233.29c-62.761 0-115.613-52.852-115.613-115.613s52.852-115.613 115.613-115.613c62.761 0 115.613 52.852 115.613 115.613s-52.852 115.613-115.613 115.613zM875.355 68.129c-26.426 0-49.548 23.123-49.548 49.548s23.123 49.548 49.548 49.548 49.548-23.123 49.548-49.548-23.123-49.548-49.548-49.548zM875.355 134.194c-9.91 0-16.516-6.606-16.516-16.516s6.606-16.516 16.516-16.516 16.516 6.606 16.516 16.516-6.606 16.516-16.516 16.516zM2110.761 101.161h-95.794v66.065h95.794c19.819 3.303 62.761 75.974 69.368 105.703 13.213 52.852-3.303 92.49-16.516 112.31-19.819 29.729-42.942 42.942-56.155 42.942-39.639 6.606-102.4 19.819-165.161 29.729-79.277 16.516-181.677 33.032-194.89 36.335v66.065c9.91 0 42.942-6.606 204.8-36.335 62.761-13.213 125.523-23.123 165.161-29.729 36.335-6.606 72.671-36.335 99.097-72.671 23.123-33.032 42.942-89.187 26.426-165.161-3.303-23.123-59.458-155.252-132.129-155.252zM726.71 101.161h-99.097c-92.49 0-165.161 72.671-165.161 165.161v132.129c0 92.49 72.671 165.161 165.161 165.161h145.342l66.065 135.432c39.639 79.277 122.219 128.826 211.406 128.826h426.116c79.277 0 151.948-39.639 194.89-109.006l105.703-171.768-56.155-36.335-105.703 171.768c-29.729 49.548-82.581 79.277-138.735 79.277h-426.116c-66.065 0-122.219-36.335-151.948-92.49l-85.884-171.768h-184.981c-56.155 0-99.097-42.942-99.097-99.097v-132.129c0-56.155 42.942-99.097 99.097-99.097h99.097v-66.065zM1866.323-64c-99.097 0-181.677 82.581-181.677 181.677s82.581 181.677 181.677 181.677 181.677-82.581 181.677-181.677-82.581-181.677-181.677-181.677zM1866.323 233.29c-62.761 0-115.613-52.852-115.613-115.613s52.852-115.613 115.613-115.613 115.613 52.852 115.613 115.613-52.852 115.613-115.613 115.613zM1866.323 68.129c-26.426 0-49.548 23.123-49.548 49.548s23.123 49.548 49.548 49.548 49.548-23.123 49.548-49.548-23.123-49.548-49.548-49.548zM1866.323 134.194c-9.91 0-16.516-6.606-16.516-16.516s6.606-16.516 16.516-16.516 16.516 6.606 16.516 16.516-6.606 16.516-16.516 16.516zM1750.71 497.548h-462.452v231.226h330.323v-66.065h-264.258v-99.097h396.387zM1321.29 497.548h-300.594c-26.426 0-46.245 13.213-59.458 36.335s-13.213 49.548 0 69.368l49.548 82.581c16.516 26.426 46.245 42.942 75.974 42.942h234.529v-66.065h-234.529c-6.606 0-16.516-3.303-19.819-9.91l-49.548-82.581 3.303-3.303h300.594v-69.368zM1024 167.226h660.645v-66.065h-660.645v66.065zM495.484 431.484h99.097v-66.065h-99.097v66.065zM2081.032 365.419h132.129v-66.065h-132.129v66.065zM1189.161 398.452h66.065v-66.065h-66.065v66.065zM1255.226 332.387h66.065v-66.065h-66.065v66.065zM1321.29 398.452h66.065v-66.065h-66.065v66.065zM1453.419 398.452h66.065v-66.065h-66.065v66.065zM1387.355 332.387h66.065v-66.065h-66.065v66.065zM1486.452 794.839h-66.065v66.065c0 16.516-16.516 33.032-39.639 33.032h-184.981c-19.819 0-39.639-13.213-39.639-33.032v-66.065h-66.065v66.065c0 52.852 46.245 99.097 105.703 99.097h184.981c59.458 0 105.703-42.942 105.703-99.097v-66.065zM165.161 365.419h198.194v-66.065h-198.194v66.065zM0 530.581h297.29v-66.065h-297.29v66.065zM165.161 695.742h462.452v-66.065h-462.452v66.065z" />
<glyph unicode="&#xe93e;" glyph-name="taxi2" horiz-adv-x="2524" d="M504.72-49.441h504.72v504.72h-504.72v-504.72zM1009.441 960v-504.72h504.72v504.72h-504.72zM1514.161-49.441h504.72v504.72h-504.72v-504.72zM2018.882 960v-504.72h504.72v504.72h-504.72zM0 960v-504.72h504.72v504.72h-504.72z" />
<glyph unicode="&#xe93f;" glyph-name="user" d="M512 959.56c-282.764 0-512-229.236-512-512s229.236-512 512-512 512 229.236 512 512-229.236 512-512 512zM512 913.014c257.164 0 465.455-208.291 465.455-465.455 0-125.673-48.873-238.545-130.327-322.327-41.891 146.618-175.709 252.509-335.127 252.509s-294.4-107.055-335.127-252.509c-81.455 83.782-130.327 197.818-130.327 322.327 0 258.327 208.291 465.455 465.455 465.455zM512 854.833c-104.727 0-186.182-95.418-186.182-209.455s81.455-209.455 186.182-209.455 186.182 95.418 186.182 209.455c0 114.036-81.455 209.455-186.182 209.455zM512 808.287c75.636 0 139.636-70.982 139.636-162.909s-64-162.909-139.636-162.909-139.636 70.982-139.636 162.909 64 162.909 139.636 162.909zM512 331.196c147.782 0 268.8-103.564 296.727-242.036-80.291-66.327-183.855-107.055-296.727-107.055s-216.436 39.564-296.727 107.055c27.927 138.473 148.945 242.036 296.727 242.036v0z" />
</font>
</defs>
</svg>
